<svg id="Слой_1" data-name="Слой 1" xmlns="http://www.w3.org/2000/svg" viewBox="0 0 160 50.28"><defs><style>.cls-1{fill:#a0a7ab;}.cls-2{fill:#fff;}.cls-3{fill:#1d1d1b;}</style></defs><title>AppStoreBlack</title><rect class="cls-1" y="1" width="160" height="49.33" rx="7.67" ry="7.67"/><rect class="cls-2" width="160" height="49.33" rx="7.67" ry="7.67"/><path class="cls-3" d="M34.11,22.79a6,6,0,0,1,3.17-5.37A6.46,6.46,0,0,0,32,14.67c-2.16-.25-4.31,1.25-5.45,1.25s-2.92-1.25-4.82-1.25a7.33,7.33,0,0,0-6,3.5c-2.53,4.37-.63,10.75,1.78,14.25C18.77,34.17,20.17,36,22.07,36s2.54-1.12,4.69-1.12S29.55,36,31.45,36s3.17-1.75,4.44-3.5a16.94,16.94,0,0,0,2-4A6.32,6.32,0,0,1,34.11,22.79Z"/><path class="cls-3" d="M30.56,12.29a6.49,6.49,0,0,0,1.53-4.5A6.48,6.48,0,0,0,27.9,9.92a6.18,6.18,0,0,0-1.52,4.37A5.78,5.78,0,0,0,30.56,12.29Z"/><path class="cls-3" d="M56.05,31.92h-6l-1.4,4.25H46.16l5.7-15.5h2.67l5.7,15.5H57.7Zm-5.33-2h4.82l-2.28-6.75h-.13Z"/><path class="cls-3" d="M72.4,30.42c0,3.5-1.9,5.75-4.81,5.75a3.69,3.69,0,0,1-3.55-2v5.62H61.63v-15h2.28v1.88a4.26,4.26,0,0,1,3.68-2C70.38,24.67,72.4,26.92,72.4,30.42Zm-2.53,0c0-2.25-1.14-3.75-3-3.75s-3,1.5-3,3.75,1.27,3.75,3,3.75S69.87,32.79,69.87,30.42Z"/><path class="cls-3" d="M85,30.42c0,3.5-1.91,5.75-4.82,5.75a3.7,3.7,0,0,1-3.55-2v5.62H74.18v-15h2.28v1.88a4.28,4.28,0,0,1,3.68-2C83.05,24.67,85,26.92,85,30.42Zm-2.41,0c0-2.25-1.14-3.75-3-3.75s-3,1.5-3,3.75,1.27,3.75,3,3.75S82.55,32.79,82.55,30.42Z"/><path class="cls-3" d="M93.32,31.79c.13,1.5,1.65,2.5,3.81,2.5s3.42-1,3.42-2.37-.89-1.88-2.92-2.38l-2-.5c-2.92-.75-4.19-2-4.19-4.12,0-2.63,2.41-4.5,5.71-4.5s5.58,1.87,5.7,4.5h-2.41c-.12-1.5-1.39-2.5-3.29-2.5S94,23.42,94,24.79c0,1.13.88,1.75,2.91,2.25l1.78.38c3.17.75,4.56,2,4.56,4.25,0,2.87-2.28,4.75-6.08,4.75-3.55,0-5.84-1.75-6-4.63Z"/><path class="cls-3" d="M108,22v2.63h2.16v1.87H108v6.25c0,1,.38,1.38,1.39,1.38h.77V36a4.22,4.22,0,0,1-1.27.13c-2.28,0-3.17-.88-3.17-3v-6.5H104.1V24.79h1.65V22.17H108Z"/><path class="cls-3" d="M111.58,30.42c0-3.5,2.16-5.75,5.45-5.75s5.45,2.25,5.45,5.75-2.15,5.75-5.45,5.75S111.58,34,111.58,30.42Zm8.49,0c0-2.5-1.14-3.88-3-3.88s-3,1.5-3,3.88,1.14,3.87,3,3.87S120.07,32.92,120.07,30.42Z"/><path class="cls-3" d="M124.38,24.79h2.29v1.88a2.61,2.61,0,0,1,2.79-2,1.71,1.71,0,0,1,.76.12v2.13a3.09,3.09,0,0,0-1-.13A2.37,2.37,0,0,0,126.79,29v7.13h-2.41Z"/><path class="cls-3" d="M141.12,32.79c-.38,2-2.41,3.5-4.94,3.5-3.3,0-5.46-2.25-5.46-5.75s2-5.87,5.33-5.87,5.2,2.12,5.2,5.62V31h-8.12v.13a3.06,3.06,0,0,0,2.67,3.25h.38a2.49,2.49,0,0,0,2.66-1.63Zm-8-3.37h5.71a2.79,2.79,0,0,0-2.66-2.88h-.26A2.82,2.82,0,0,0,133.13,29.42Z"/><path class="cls-3" d="M50.34,8.92a3.27,3.27,0,0,1,3.55,3v.62c0,2.38-1.26,3.75-3.55,3.75H47.55V8.79h2.79Zm-1.52,6.37h1.4A2.38,2.38,0,0,0,52.75,13v-.5a2.37,2.37,0,0,0-2-2.62h-1.9Z"/><path class="cls-3" d="M55.29,13.54a2.67,2.67,0,0,1,5.32-.5v.5a2.67,2.67,0,0,1-5.32.5Zm4.18,0c0-1.25-.51-1.87-1.52-1.87s-1.52.75-1.52,1.87.51,2,1.52,2S59.47,14.79,59.47,13.54Z"/><path class="cls-3" d="M67.84,16.29H66.7l-1.14-4.12h-.13l-1.14,4.12H63.15l-1.52-5.62h1.14l1,4.25h.13l1.14-4.25h1.14l1.14,4.25h.13l1-4.25h1.14Z"/><path class="cls-3" d="M70.76,10.67H71.9v.87H72a2,2,0,0,1,3.68.75v4H74.56V12.92c0-.88-.38-1.38-1.27-1.38a1.29,1.29,0,0,0-1.39,1.25v3.5H70.76Z"/><path class="cls-3" d="M77.35,8.54h1.14v7.88H77.35Z"/><path class="cls-3" d="M80,13.54a2.68,2.68,0,0,1,5.33-.5v.5A2.68,2.68,0,0,1,80,14Zm4.31,0c0-1.25-.51-1.87-1.52-1.87s-1.52.75-1.52,1.87.51,2,1.52,2A1.76,1.76,0,0,0,84.32,13.54Z"/><path class="cls-3" d="M86.6,14.79c0-1,.76-1.62,2.16-1.62L90.28,13v-.5c0-.62-.38-.87-1.14-.87s-1,.25-1.14.62H86.86c.12-1,1-1.62,2.28-1.62s2.28.75,2.28,1.87v3.88H90.28v-.75h-.13a1.93,1.93,0,0,1-1.77.87,1.78,1.78,0,0,1-1.9-1.5Zm3.68-.5v-.5l-1.39.13c-.77,0-1.15.37-1.15.75s.51.75,1,.75A1.31,1.31,0,0,0,90.28,14.29Z"/><path class="cls-3" d="M92.82,13.54c0-1.75.88-2.87,2.4-2.87a2,2,0,0,1,1.78,1h.13V8.54h1.14v7.88H97.13v-.88H97a2,2,0,0,1-1.78,1A2.72,2.72,0,0,1,92.82,13.54Zm1.26,0c0,1.25.64,1.88,1.53,1.88s1.52-.75,1.52-1.88-.64-1.87-1.52-1.87S94.08,12.29,94.08,13.54Z"/><path class="cls-3" d="M102.83,13.54a2.68,2.68,0,0,1,5.33-.5v.5a2.68,2.68,0,0,1-5.33.5Zm4.31,0c0-1.25-.5-1.87-1.52-1.87s-1.52.75-1.52,1.87.51,2,1.52,2A1.76,1.76,0,0,0,107.14,13.54Z"/><path class="cls-3" d="M109.81,10.67H111v.87h.12a2,2,0,0,1,3.68.75v4h-1.14V12.92c0-.88-.38-1.38-1.27-1.38A1.29,1.29,0,0,0,111,12.79v3.5h-1.14Z"/><path class="cls-3" d="M121,9.29v1.38h1.27v.87H121v2.88c0,.62.26.87.76.87h.38v.88h-.63c-1.27,0-1.78-.38-1.78-1.5V11.54h-.88v-.87h.88V9.29Z"/><path class="cls-3" d="M123.75,8.54h1.14v3.13H125a1.68,1.68,0,0,1,1.77-1,2,2,0,0,1,2,1.75v4h-1.14V13c0-.87-.38-1.37-1.27-1.37A1.29,1.29,0,0,0,125,12.92v3.5h-1.14Z"/><path class="cls-3" d="M135.29,14.79a2.41,2.41,0,0,1-2.54,1.63,2.64,2.64,0,0,1-2.66-2.5v-.38a2.47,2.47,0,0,1,2.28-2.87h.38c1.65,0,2.54,1.12,2.54,2.87v.38h-4.06a1.45,1.45,0,0,0,1.4,1.62h.12a1.5,1.5,0,0,0,1.4-.62ZM131.23,13h2.92a1.5,1.5,0,0,0-1.27-1.5h-.13a1.53,1.53,0,0,0-1.52,1.5Z"/></svg>