<svg width="32" height="32" viewBox="0 0 32 32" fill="none" xmlns="http://www.w3.org/2000/svg">
<path d="M31.6 10.56C30.8 5.28 26.72 1.2 21.44 0.4C19.68 0.16 17.84 0 16 0C14.16 0 12.32 0.16 10.56 0.4C5.28 1.2 1.2 5.28 0.4 10.56C0.16 12.32 0 14.16 0 16C0 17.84 0.16 19.68 0.4 21.44C1.2 26.72 5.28 30.8 10.56 31.6C12.32 31.84 14.16 32 16 32C17.84 32 19.68 31.84 21.44 31.6C26.72 30.8 30.8 26.72 31.6 21.44C31.84 19.68 32 17.84 32 16C32 14.16 31.84 12.32 31.6 10.56Z" fill="#3B5997"/>
<path fill-rule="evenodd" clip-rule="evenodd" d="M14.0799 19.68C14.0799 18.48 14.0799 17.36 14.0799 16.16C14.0799 16 13.9999 15.92 13.8399 15.92C13.4399 15.92 13.1199 15.92 12.7199 15.92C12.5599 15.92 12.4799 15.92 12.5599 15.76C12.5599 15.04 12.5599 14.32 12.5599 13.6C12.5599 13.44 12.6399 13.44 12.7199 13.44C13.1199 13.44 13.4399 13.44 13.8399 13.44C14.0799 13.44 14.0799 13.36 14.0799 13.2C14.0799 12.64 14.0799 12.08 14.0799 11.52C14.0799 10.88 14.2399 10.24 14.6399 9.68001C15.1199 8.96001 15.8399 8.64001 16.7199 8.64001C17.5999 8.64001 18.3999 8.64001 19.2799 8.64001C19.3599 8.64001 19.4399 8.72001 19.4399 8.80001C19.4399 9.52001 19.4399 10.24 19.4399 10.96C19.4399 11.12 19.3599 11.12 19.2799 11.12C18.8799 11.12 18.4799 11.12 18.0799 11.12C17.5199 11.12 17.1999 11.44 17.1999 11.92C17.1999 12.32 17.1999 12.8 17.1999 13.2C17.1999 13.36 17.28 13.36 17.36 13.36C17.9999 13.36 18.6399 13.36 19.1999 13.36C19.3599 13.36 19.4399 13.36 19.4399 13.6C19.3599 14.32 19.2799 15.04 19.1999 15.76C19.1999 15.92 19.12 15.92 18.9599 15.92C18.4799 15.92 17.9999 15.92 17.4399 15.92C17.1199 15.92 17.1199 15.84 17.1199 16.24C17.1199 18.48 17.1199 20.8 17.1199 23.04C17.1199 23.28 17.0399 23.36 16.7999 23.36C15.9199 23.36 15.1199 23.36 14.2399 23.36C13.9999 23.36 13.9999 23.28 13.9999 23.04C14.0799 22 14.0799 20.8 14.0799 19.68Z" fill="white"/>
</svg>
