<svg width="136" height="12" viewBox="0 0 136 12" fill="none" xmlns="http://www.w3.org/2000/svg">
<path d="M2.96191 8.95306C8.88229 8.95306 8.88229 2.98306 14.8027 2.98306C20.723 2.98306 20.723 8.95306 26.6434 8.95306C32.5638 8.95306 32.5638 2.98306 38.4841 2.98306C44.4045 2.98306 44.4045 8.95306 50.3249 8.95306C56.2453 8.95306 56.2453 2.98306 62.1656 2.98306C68.086 2.98306 68.086 8.95306 74.0064 8.95306C79.9268 8.95306 79.9268 2.98306 85.8471 2.98306C91.7675 2.98306 91.7675 8.95306 97.6879 8.95306C103.608 8.95306 103.608 2.98306 109.529 2.98306C115.449 2.98306 115.449 8.95306 121.369 8.95306C127.29 8.95306 127.29 2.98306 133.21 2.98306" stroke="#17DE95" stroke-width="5.34" stroke-miterlimit="10" stroke-linecap="round"/>
</svg>
