<svg width="32" height="32" viewBox="0 0 32 32" fill="none" xmlns="http://www.w3.org/2000/svg">
<path d="M31.6 10.56C30.8 5.28 26.72 1.2 21.44 0.4C19.68 0.16 17.84 0 16 0C14.16 0 12.32 0.16 10.56 0.4C5.28 1.2 1.2 5.28 0.4 10.56C0.16 12.32 0 14.16 0 16C0 17.84 0.16 19.68 0.4 21.44C1.2 26.72 5.28 30.8 10.56 31.6C12.32 31.84 14.16 32 16 32C17.84 32 19.68 31.84 21.44 31.6C26.72 30.8 30.8 26.72 31.6 21.44C31.84 19.68 32 17.84 32 16C32 14.16 31.84 12.32 31.6 10.56Z" fill="url(#paint0_radial)"/>
<path d="M16.0001 9.92006C18.0001 9.92006 18.2401 9.92006 19.0401 10.0001C19.7601 10.0001 20.1601 10.1601 20.4001 10.2401C20.7201 10.4001 20.9601 10.5601 21.2801 10.8001C21.5201 11.0401 21.6801 11.2801 21.8401 11.6801C21.9201 11.9201 22.0801 12.3201 22.0801 13.0401C22.0801 13.8401 22.1601 14.0801 22.1601 16.0801C22.1601 18.0801 22.1601 18.3201 22.0801 19.1201C22.0801 19.8401 21.9201 20.2401 21.8401 20.4801C21.6801 20.8001 21.5201 21.0401 21.2801 21.3601C21.0401 21.6001 20.8001 21.7601 20.4001 21.9201C20.1601 22.0001 19.7601 22.1601 19.0401 22.1601C18.2401 22.1601 18.0001 22.2401 16.0001 22.2401C14.0001 22.2401 13.7601 22.2401 12.9601 22.1601C12.2401 22.1601 11.8401 22.0001 11.6001 21.9201C11.2801 21.7601 11.0401 21.6001 10.7201 21.3601C10.4801 21.1201 10.3201 20.8801 10.1601 20.4801C10.0801 20.2401 9.92006 19.8401 9.92006 19.1201C9.92006 18.3201 9.84006 18.0801 9.84006 16.0801C9.84006 14.0801 9.84006 13.8401 9.92006 13.0401C9.92006 12.3201 10.0801 11.9201 10.1601 11.6801C10.3201 11.3601 10.4801 11.1201 10.7201 10.8001C10.9601 10.5601 11.2001 10.4001 11.6001 10.2401C11.8401 10.1601 12.2401 10.0001 12.9601 10.0001C13.7601 9.92006 14.0001 9.92006 16.0001 9.92006ZM16.0001 8.56006C14.0001 8.56006 13.7601 8.56006 12.9601 8.64006C12.1601 8.64006 11.6001 8.80006 11.1201 8.96006C10.6401 9.12006 10.2401 9.44006 9.84006 9.84006C9.44006 10.2401 9.20006 10.6401 8.96006 11.1201C8.80006 11.6001 8.64006 12.1601 8.64006 12.9601C8.64006 13.7601 8.56006 14.0001 8.56006 16.0001C8.56006 18.0001 8.56006 18.2401 8.64006 19.0401C8.64006 19.8401 8.80006 20.4001 8.96006 20.8801C9.12006 21.3601 9.44006 21.7601 9.84006 22.1601C10.2401 22.5601 10.6401 22.8001 11.1201 23.0401C11.6001 23.2001 12.1601 23.3601 12.9601 23.3601C13.7601 23.3601 14.0001 23.4401 16.0001 23.4401C18.0001 23.4401 18.2401 23.4401 19.0401 23.3601C19.8401 23.3601 20.4001 23.2001 20.8801 23.0401C21.3601 22.8801 21.7601 22.5601 22.1601 22.1601C22.5601 21.7601 22.8001 21.3601 23.0401 20.8801C23.2001 20.4001 23.3601 19.8401 23.3601 19.0401C23.3601 18.2401 23.4401 18.0001 23.4401 16.0001C23.4401 14.0001 23.4401 13.7601 23.3601 12.9601C23.3601 12.1601 23.2001 11.6001 23.0401 11.1201C22.8801 10.6401 22.5601 10.2401 22.1601 9.84006C21.7601 9.44006 21.3601 9.20006 20.8801 8.96006C20.4001 8.80006 19.8401 8.64006 19.0401 8.64006C18.2401 8.56006 18.0001 8.56006 16.0001 8.56006Z" fill="white"/>
<path d="M16 12.16C13.92 12.16 12.16 13.84 12.16 16C12.16 18.08 13.84 19.84 16 19.84C18.08 19.84 19.84 18.16 19.84 16C19.84 13.92 18.08 12.16 16 12.16ZM16 18.48C14.64 18.48 13.52 17.36 13.52 16C13.52 14.64 14.64 13.52 16 13.52C17.36 13.52 18.48 14.64 18.48 16C18.48 17.36 17.36 18.48 16 18.48Z" fill="white"/>
<path d="M20.8801 12.0001C20.8801 12.4801 20.4801 12.8801 20.0001 12.8801C19.5201 12.8801 19.1201 12.4801 19.1201 12.0001C19.1201 11.5201 19.5201 11.1201 20.0001 11.1201C20.4801 11.1201 20.8801 11.5201 20.8801 12.0001Z" fill="white"/>
<defs>
<radialGradient id="paint0_radial" cx="0" cy="0" r="1" gradientUnits="userSpaceOnUse" gradientTransform="translate(4.30568 30.8434) scale(35.3633)">
<stop stop-color="#F4CA6F"/>
<stop offset="0.3245" stop-color="#F5703B"/>
<stop offset="0.7128" stop-color="#B13CB0"/>
<stop offset="1" stop-color="#5B65D1"/>
</radialGradient>
</defs>
</svg>
