<?xml version="1.0" encoding="utf-8"?>
<!-- Generator: Adobe Illustrator 19.1.0, SVG Export Plug-In . SVG Version: 6.00 Build 0)  -->
<svg version="1.1" id="Слой_1" xmlns="http://www.w3.org/2000/svg" xmlns:xlink="http://www.w3.org/1999/xlink" x="0px" y="0px"
	 viewBox="0 0 332.7 116.6" style="enable-background:new 0 0 332.7 116.6;" xml:space="preserve">
<style type="text/css">
	.st0{fill:#17DE95;}
</style>
<g>
	<g>
		<path class="st0" d="M183,116.5c-30.5,0-52.5-20.2-52.5-50.3c0-30.6,22.7-50.2,51.8-50.2c15,0,28.9,5,36.8,12.7l-14.6,16.6
			c-4.5-5.1-12.1-8.9-21.5-8.9c-16.2,0-28.1,12.7-28.1,29.8c0,17.5,10.4,30.1,29.1,30.1c5.4,0,10.4-0.8,14.4-2.6V76.3h-18.2V57.7
			h39.4v50.6C210.6,113.1,197.8,116.5,183,116.5z"/>
		<path class="st0" d="M280.6,116.6c-29.8,0-51.9-20.5-51.9-50.7c0-30.6,22.1-49.9,51.9-49.9c30,0,52.1,19.3,52.1,49.9
			C332.7,96.1,310.5,116.6,280.6,116.6z M280.6,36.7c-16.2,0-27.3,12.4-27.3,29.1c0,17.3,11.2,29.7,27.3,29.7
			c16.1,0,27.4-12.4,27.4-29.7C308,49.2,296.8,36.7,280.6,36.7z"/>
	</g>
	<g>
		<path class="st0" d="M33.3,35.2v26.3c0,6.4,2.1,9.7,8.6,9.7c2.2,0,5-0.4,6.7-1.1l0.3,16.6c-3.1,1.1-8.3,2.1-13.2,2.1
			c-18.4,0-24.5-9.8-24.5-24.5V35.2H0L33.3,0v18.2h16.2v17.1H33.3z"/>
		<path class="st0" d="M92.6,89.4c2.3,0,4.6-0.2,6.8-0.5l28.9-51c-5.7-13.9-19.7-22-35.7-22c-20.8,0-38.3,13.9-38.3,36.5
			S71.8,89.4,92.6,89.4z M92.6,34.8c10.7,0,16.5,8.7,16.5,17.6s-5.7,17.9-16.4,17.9s-16.4-9-16.4-17.9S82,34.8,92.6,34.8z"/>
	</g>
</g>
</svg>
