<svg id="Слой_1" data-name="Слой 1" xmlns="http://www.w3.org/2000/svg" xmlns:xlink="http://www.w3.org/1999/xlink" viewBox="0 0 160 50.32"><defs><style>.cls-1{fill:#a0a7ab;}.cls-11,.cls-2{fill:#fff;}.cls-3,.cls-4{fill:#1d1d1b;}.cls-3{stroke:#fff;stroke-miterlimit:10;stroke-width:0.2px;}.cls-5{fill:url(#Безымянный_градиент_5);}.cls-6{fill:url(#Безымянный_градиент_2);}.cls-7{fill:url(#Безымянный_градиент_3);}.cls-8{fill:url(#Безымянный_градиент_4);}.cls-9{opacity:0.2;}.cls-10,.cls-11,.cls-9{isolation:isolate;}.cls-10{opacity:0.12;}.cls-11{opacity:0.25;}</style><linearGradient id="Безымянный_градиент_5" x1="25.13" y1="-2.63" x2="5.31" y2="-22.7" gradientTransform="matrix(1, 0, 0, -1, 0, 9.1)" gradientUnits="userSpaceOnUse"><stop offset="0" stop-color="#00a0ff"/><stop offset="0.01" stop-color="#00a1ff"/><stop offset="0.26" stop-color="#00beff"/><stop offset="0.51" stop-color="#00d2ff"/><stop offset="0.76" stop-color="#00dfff"/><stop offset="1" stop-color="#00e3ff"/></linearGradient><linearGradient id="Безымянный_градиент_2" x1="39.6" y1="-16.1" x2="10.67" y2="-16.1" gradientTransform="matrix(1, 0, 0, -1, 0, 9.1)" gradientUnits="userSpaceOnUse"><stop offset="0" stop-color="#ffe000"/><stop offset="0.41" stop-color="#ffbd00"/><stop offset="0.78" stop-color="orange"/><stop offset="1" stop-color="#ff9c00"/></linearGradient><linearGradient id="Безымянный_градиент_3" x1="28.73" y1="-18.66" x2="1.86" y2="-45.87" gradientTransform="matrix(1, 0, 0, -1, 0, 9.1)" gradientUnits="userSpaceOnUse"><stop offset="0" stop-color="#ff3a44"/><stop offset="1" stop-color="#c31162"/></linearGradient><linearGradient id="Безымянный_градиент_4" x1="8.01" y1="7.5" x2="20.01" y2="-4.65" gradientTransform="matrix(1, 0, 0, -1, 0, 9.1)" gradientUnits="userSpaceOnUse"><stop offset="0" stop-color="#32a071"/><stop offset="0.07" stop-color="#2da771"/><stop offset="0.48" stop-color="#15cf74"/><stop offset="0.8" stop-color="#06e775"/><stop offset="1" stop-color="#00f076"/></linearGradient></defs><title>PlayMarketBlack</title><rect class="cls-1" y="1.04" width="160" height="49.33" rx="7.67" ry="7.67"/><rect class="cls-2" y="0.04" width="160" height="49.33" rx="7.67" ry="7.67"/><path class="cls-3" d="M55.84,13.57A3.19,3.19,0,0,1,55,15.93a3.81,3.81,0,0,1-5.27,0,3.43,3.43,0,0,1-1.07-2.6,3.62,3.62,0,0,1,3.7-3.66A3.27,3.27,0,0,1,53.8,10a2.64,2.64,0,0,1,1.07.83l-.6.59a2.25,2.25,0,0,0-1.92-.82,2.4,2.4,0,0,0-1.92.82,2.44,2.44,0,0,0-.84,2,2.41,2.41,0,0,0,.84,2,3.08,3.08,0,0,0,1.92.83,2.65,2.65,0,0,0,2-.83A1.94,1.94,0,0,0,55,14H52.35V13.1h3.47v.47Zm5.49-3H58.11v2.24h3v.83h-3v2.24h3.22v.94H57.14V9.78h4.19Zm3.94,6.27h-1V10.62h-2V9.8h5v.82h-2Zm5.51,0V9.8h1v7.09Zm5,0h-1V10.62h-2V9.8h4.91v.82h-2v6.27Zm11.36-1a3.82,3.82,0,0,1-5.28,0,3.43,3.43,0,0,1-1.07-2.6,3.47,3.47,0,0,1,1.07-2.61,3.84,3.84,0,0,1,5.28,0,3.49,3.49,0,0,1,1.07,2.61A3.43,3.43,0,0,1,87.16,15.93Zm-4.54-.58a2.82,2.82,0,0,0,1.91.83,2.38,2.38,0,0,0,1.92-.83,2.8,2.8,0,0,0,.84-2,2.44,2.44,0,0,0-.84-2,2.81,2.81,0,0,0-1.92-.82,2.39,2.39,0,0,0-1.91.82,2.82,2.82,0,0,0-.84,2A2.4,2.4,0,0,0,82.62,15.35Zm6.94,1.54V9.8h1.07l3.47,5.55V9.8h1v7.09h-1L90.39,11.1v5.79Z"/><path class="cls-4" d="M80.58,27.27a5,5,0,0,0-5.14,5.08,5.07,5.07,0,0,0,5.14,5.08,5,5,0,0,0,5.14-5.08A4.93,4.93,0,0,0,80.58,27.27Zm0,8a3.07,3.07,0,0,1,0-6.13,2.88,2.88,0,0,1,2.87,3.06A3,3,0,0,1,80.58,35.3Zm-11.12-8a5,5,0,0,0-5.14,5.08,5.07,5.07,0,0,0,5.14,5.08,5,5,0,0,0,5.14-5.08A4.93,4.93,0,0,0,69.46,27.27Zm0,8a3.07,3.07,0,0,1,0-6.13,2.88,2.88,0,0,1,2.87,3.06A3,3,0,0,1,69.46,35.3ZM56.19,28.81v2.12h5.14a4.42,4.42,0,0,1-1.2,2.72,5.33,5.33,0,0,1-3.94,1.54,5.54,5.54,0,0,1-5.63-5.68,5.61,5.61,0,0,1,5.63-5.67,5.93,5.93,0,0,1,3.94,1.54l1.55-1.54a7.72,7.72,0,0,0-5.38-2.12,8,8,0,0,0-8,7.79,8,8,0,0,0,8,7.8,6.92,6.92,0,0,0,5.5-2.24,7.1,7.1,0,0,0,1.92-5,4.36,4.36,0,0,0-.12-1.3Zm54.29,1.65a4.62,4.62,0,0,0-4.31-3.19,4.78,4.78,0,0,0-4.79,5.08,5,5,0,0,0,9.22,2.84L108.93,34a3,3,0,0,1-2.51,1.42,2.58,2.58,0,0,1-2.5-1.54l6.81-2.83Zm-6.93,1.66a2.87,2.87,0,0,1,2.64-2.95,2.16,2.16,0,0,1,1.92,1ZM97.92,37h2.27V22.19H97.92Zm-3.59-8.62a4,4,0,0,0-2.75-1.19,5.12,5.12,0,0,0-4.91,5.08,4.92,4.92,0,0,0,4.91,5A3.49,3.49,0,0,0,94.22,36h.11v.7c0,1.9-1.06,3-2.75,3a2.62,2.62,0,0,1-2.5-1.77l-1.92.83a4.93,4.93,0,0,0,4.54,3c2.63,0,4.79-1.54,4.79-5.2v-9H94.33Zm-2.62,7a3.07,3.07,0,0,1,0-6.13,2.86,2.86,0,0,1,2.76,3.06A2.86,2.86,0,0,1,91.71,35.3Zm29.17-13.11H115.5V37h2.27V31.4h3.11a4.61,4.61,0,1,0,0-9.21Zm.12,7.09h-3.23V24.21H121a2.61,2.61,0,0,1,2.63,2.47A2.71,2.71,0,0,1,121,29.28Zm13.75-2.12a4,4,0,0,0-3.94,2.24l2,.82a2.12,2.12,0,0,1,2-1,2.22,2.22,0,0,1,2.39,1.89v.12a4.85,4.85,0,0,0-2.27-.59c-2.15,0-4.3,1.18-4.3,3.31a3.48,3.48,0,0,0,3.7,3.31,3.38,3.38,0,0,0,2.87-1.42h.12V37h2.15V31.31A4.51,4.51,0,0,0,134.75,27.16Zm-.23,8.14c-.72,0-1.79-.35-1.79-1.3,0-1.19,1.32-1.53,2.39-1.53a4.69,4.69,0,0,1,2,.47A2.79,2.79,0,0,1,134.52,35.3Zm12.55-7.8-2.5,6.38h-.12l-2.64-6.38h-2.38l3.94,9-2.27,5h2.27l6.09-13.94ZM127,37h2.27V22.19H127Z"/><path class="cls-5" d="M11.58,10.39A2.31,2.31,0,0,0,11.1,12v26.1a2.25,2.25,0,0,0,.6,1.65l.11.11L26.64,25.26V25Z"/><path class="cls-6" d="M31.43,30.22l-4.91-4.84V25l4.91-4.85.12.12,5.86,3.31c1.67.94,1.67,2.48,0,3.43Z"/><path class="cls-7" d="M31.56,30.11l-5-5L11.59,39.9c.6.59,1.44.59,2.51.12Z"/><path class="cls-8" d="M31.56,20.18,14.1,10.39a1.94,1.94,0,0,0-2.51.12l15,14.64Z"/><path class="cls-9" d="M31.43,30,14.1,39.67a2,2,0,0,1-2.39,0l-.12.12.12.11a2,2,0,0,0,2.39,0Z"/><path class="cls-10" d="M11.58,39.67A2.31,2.31,0,0,1,11.1,38v.12a2.25,2.25,0,0,0,.6,1.65v-.12Zm25.84-13-6,3.31.12.12,5.86-3.31a2,2,0,0,0,1.2-1.65C38.61,25.74,38.14,26.22,37.42,26.68Z"/><path class="cls-11" d="M14.1,10.51l23.32,13.1c.72.48,1.2.94,1.2,1.54a1.92,1.92,0,0,0-1.2-1.65L14.1,10.39c-1.67-.94-3-.23-3,1.65v.11C11.11,10.39,12.41,9.57,14.1,10.51Z"/></svg>