<svg width="32" height="32" viewBox="0 0 32 32" fill="none" xmlns="http://www.w3.org/2000/svg">
<path d="M31.6 10.56C30.8 5.28 26.72 1.2 21.44 0.4C19.68 0.16 17.84 0 16 0C14.16 0 12.32 0.16 10.56 0.4C5.28 1.2 1.2 5.28 0.4 10.56C0.16 12.32 0 14.16 0 16C0 17.84 0.16 19.68 0.4 21.44C1.2 26.72 5.28 30.8 10.56 31.6C12.32 31.84 14.16 32 16 32C17.84 32 19.68 31.84 21.44 31.6C26.72 30.8 30.8 26.72 31.6 21.44C31.84 19.68 32 17.84 32 16C32 14.16 31.84 12.32 31.6 10.56Z" fill="#00ACED"/>
<path d="M23.2 11.52C22.64 11.76 22.08 11.92 21.52 12C22.16 11.6 22.56 11.04 22.8 10.4C22.24 10.72 21.6 10.96 20.96 11.12C20.4 10.56 19.68 10.16 18.8 10.16C17.2 10.16 15.84 11.44 15.84 13.12C15.84 13.36 15.84 13.6 15.92 13.76C13.44 13.6 11.28 12.48 9.84001 10.72C9.60001 11.12 9.44001 11.68 9.44001 12.16C9.44001 13.2 9.92001 14.08 10.72 14.64C10.24 14.64 9.76001 14.48 9.36001 14.24C9.36001 15.68 10.4 16.88 11.68 17.12C11.44 17.2 11.2 17.2 10.88 17.2C10.72 17.2 10.48 17.2 10.32 17.12C10.72 18.32 11.76 19.12 13.04 19.2C12 20 10.8 20.48 9.36001 20.48C9.12001 20.48 8.88001 20.48 8.64001 20.4C9.92001 21.2 11.52 21.76 13.12 21.76C18.56 21.76 21.52 17.28 21.52 13.36C21.52 13.2 21.52 13.12 21.52 12.96C22.24 12.64 22.8 12.16 23.2 11.52Z" fill="white"/>
</svg>
