<?xml version="1.0" encoding="utf-8"?>
<!-- Generator: Adobe Illustrator 23.1.0, SVG Export Plug-In . SVG Version: 6.00 Build 0)  -->
<svg version="1.1" id="Layer_1" xmlns="http://www.w3.org/2000/svg" xmlns:xlink="http://www.w3.org/1999/xlink" x="0px" y="0px"
	 viewBox="0 0 32 32" style="enable-background:new 0 0 32 32;" xml:space="preserve">
<style type="text/css">
	.st0{fill:#5181B8;}
	.st1{fill-rule:evenodd;clip-rule:evenodd;fill:#FFFFFF;}
</style>
<path class="st0" d="M31.6,10.6c-0.8-5.3-4.9-9.4-10.2-10.2C19.7,0.2,17.8,0,16,0s-3.7,0.2-5.4,0.4C5.3,1.2,1.2,5.3,0.4,10.6
	C0.2,12.3,0,14.2,0,16s0.2,3.7,0.4,5.4c0.8,5.3,4.9,9.4,10.2,10.2c1.8,0.2,3.6,0.4,5.4,0.4s3.7-0.2,5.4-0.4
	c5.3-0.8,9.4-4.9,10.2-10.2c0.2-1.8,0.4-3.6,0.4-5.4S31.8,12.3,31.6,10.6z"/>
<path class="st1" d="M23.4,12.4c0.1-0.4,0-0.6-0.5-0.6h-1.7c-0.4,0-0.6,0.2-0.7,0.5c0,0-0.9,2.1-2.1,3.5c-0.4,0.4-0.6,0.5-0.8,0.5
	c-0.1,0-0.3-0.1-0.3-0.5v-3.4c0-0.4-0.1-0.6-0.5-0.6h-2.7c-0.3,0-0.4,0.2-0.4,0.4c0,0.4,0.6,0.5,0.7,1.7v2.5c0,0.5-0.1,0.6-0.3,0.6
	c-0.6,0-2-2.1-2.8-4.5c-0.2-0.5-0.3-0.7-0.8-0.7H8.8c-0.5,0-0.6,0.2-0.6,0.5c0,0.5,0.6,2.7,2.7,5.6c1.4,2,3.4,3.1,5.2,3.1
	c1.1,0,1.2-0.2,1.2-0.7v-1.5c0-0.5,0.1-0.6,0.4-0.6c0.3,0,0.7,0.1,1.7,1.1c1.2,1.2,1.3,1.7,2,1.7h1.7c0.5,0,0.7-0.2,0.6-0.7
	c-0.2-0.5-0.7-1.2-1.4-2c-0.4-0.5-1-1-1.2-1.2c-0.3-0.3-0.2-0.5,0-0.8C21.1,16.3,23.2,13.4,23.4,12.4L23.4,12.4z"/>
</svg>
