<?xml version="1.0" encoding="UTF-8"?> <svg xmlns="http://www.w3.org/2000/svg" width="253" height="59" viewBox="0 0 253 59" fill="none"> <g filter="url(#filter0_d)"> <rect x="5.5" y="5.5" width="242" height="48" stroke="white"></rect> </g> <path d="M72.912 33V21.72H70.272L64.64 32.632H64.272L64.48 31.688V21.72H63.184V33H65.824L71.44 22.088H71.808L71.6 23.032V33H72.912ZM75.0861 29.896C75.0861 32.168 76.3501 33.16 78.4941 33.16C80.4941 33.16 81.6141 32.232 81.6141 30.776C81.6141 29.64 80.8461 29.112 79.8541 28.968V28.6C80.8461 28.472 81.4541 27.96 81.4541 26.968C81.4541 25.8 80.4301 24.888 78.4301 24.888C76.2861 24.888 75.2461 25.864 75.2461 27.528H76.5261C76.5261 26.456 76.8781 25.928 78.4301 25.928C79.8381 25.928 80.1741 26.408 80.1741 27.112C80.1741 27.848 79.8861 28.264 78.9101 28.264H77.8381V29.32H78.9101C79.8861 29.32 80.3341 29.72 80.3341 30.632C80.3341 31.608 79.8861 32.12 78.4941 32.12C76.9421 32.12 76.3661 31.576 76.3661 29.896H75.0861ZM89.6446 25.048L87.1486 31.24V31.848H86.7646V31.24L84.2686 25.048H82.8286L86.3006 32.92V34.968L83.4366 34.824V35.944L86.5086 36.088C87.2606 36.12 87.6126 35.752 87.6126 35.144V32.92L91.0686 25.048H89.6446ZM98.8418 25.048V29L94.0738 29.32V25.048H92.7618V29.352C92.7618 30.104 93.1138 30.488 93.8658 30.44L98.8418 30.12V33H100.154V25.048H98.8418ZM110.128 33V25.048H107.504L103.968 32.632H103.6L103.808 31.848V25.048H102.496V33H105.136L108.672 25.432H109.04L108.832 26.184V33H110.128ZM118.984 25.048H111.672V26.168H114.68V33H115.992V26.168H118.984V25.048ZM123.8 27.336H122.152V25.048H120.84V33H123.8C125.688 33 127.208 32.392 127.208 30.168C127.208 27.944 125.688 27.336 123.8 27.336ZM122.152 31.88V28.456H123.64C124.984 28.456 125.896 28.616 125.896 30.168C125.896 31.72 124.984 31.88 123.64 31.88H122.152ZM134.223 29.016C134.223 31.336 135.887 33.16 138.431 33.16C140.959 33.16 142.607 31.336 142.607 29.016C142.607 26.712 140.959 24.888 138.431 24.888C135.887 24.888 134.223 26.712 134.223 29.016ZM135.535 29.016C135.535 27.368 136.543 26.008 138.431 26.008C140.303 26.008 141.311 27.368 141.311 29.016C141.311 30.68 140.303 32.04 138.431 32.04C136.543 32.04 135.535 30.68 135.535 29.016ZM150.672 25.048H143.36V26.168H146.368V33H147.68V26.168H150.672V25.048ZM151.883 29.896C151.883 32.168 153.147 33.16 155.291 33.16C157.291 33.16 158.411 32.232 158.411 30.776C158.411 29.64 157.643 29.112 156.651 28.968V28.6C157.643 28.472 158.251 27.96 158.251 26.968C158.251 25.8 157.227 24.888 155.227 24.888C153.083 24.888 152.043 25.864 152.043 27.528H153.323C153.323 26.456 153.675 25.928 155.227 25.928C156.635 25.928 156.971 26.408 156.971 27.112C156.971 27.848 156.683 28.264 155.707 28.264H154.635V29.32H155.707C156.683 29.32 157.131 29.72 157.131 30.632C157.131 31.608 156.683 32.12 155.291 32.12C153.739 32.12 153.163 31.576 153.163 29.896H151.883ZM163.55 27.336H161.902V25.048H160.59V33H163.55C165.438 33 166.958 32.392 166.958 30.168C166.958 27.944 165.438 27.336 163.55 27.336ZM168.078 33H169.374V25.048H168.078V33ZM161.902 31.88V28.456H163.39C164.734 28.456 165.646 28.616 165.646 30.168C165.646 31.72 164.734 31.88 163.39 31.88H161.902ZM171.731 33H175.203C177.107 33 178.387 32.456 178.387 30.904C178.387 29.384 177.315 29.032 176.259 29.016V28.632C176.899 28.584 177.795 28.264 177.795 26.952C177.795 25.432 176.515 25.048 174.611 25.048H171.731V33ZM173.011 28.344V26.088H174.611C175.907 26.088 176.515 26.248 176.515 27.16C176.515 28.28 175.907 28.344 174.611 28.344H173.011ZM173.011 31.96V29.384H175.203C176.483 29.384 177.107 29.624 177.107 30.744C177.107 31.8 176.483 31.96 175.203 31.96H173.011ZM183.222 27.336H181.574V25.048H180.262V33H183.222C185.11 33 186.63 32.392 186.63 30.168C186.63 27.944 185.11 27.336 183.222 27.336ZM187.75 33H189.046V25.048H187.75V33ZM181.574 31.88V28.456H183.062C184.406 28.456 185.318 28.616 185.318 30.168C185.318 31.72 184.406 31.88 183.062 31.88H181.574Z" fill="white"></path> <defs> <filter id="filter0_d" x="0" y="0" width="253" height="59" filterUnits="userSpaceOnUse" color-interpolation-filters="sRGB"> <feFlood flood-opacity="0" result="BackgroundImageFix"></feFlood> <feColorMatrix in="SourceAlpha" type="matrix" values="0 0 0 0 0 0 0 0 0 0 0 0 0 0 0 0 0 0 127 0"></feColorMatrix> <feOffset></feOffset> <feGaussianBlur stdDeviation="2.5"></feGaussianBlur> <feColorMatrix type="matrix" values="0 0 0 0 1 0 0 0 0 0.0941176 0 0 0 0 0.560784 0 0 0 1 0"></feColorMatrix> <feBlend mode="normal" in2="BackgroundImageFix" result="effect1_dropShadow"></feBlend> <feBlend mode="normal" in="SourceGraphic" in2="effect1_dropShadow" result="shape"></feBlend> </filter> </defs> </svg> 