<?xml version="1.0" encoding="UTF-8"?> <svg xmlns="http://www.w3.org/2000/svg" width="134" height="54" viewBox="0 0 134 54" fill="none"> <path d="M1.44 22H5.28V16.048H11.904V22H15.744V16.6C15.744 15.28 15.024 14.56 13.704 14.56H11.232V13.6C13.272 13.36 15.528 12.592 15.528 9.808C15.528 6.016 12.024 5.08 7.992 5.08H1.44V22ZM5.28 12.688V8.44H7.992C10.272 8.44 11.688 8.44 11.688 10.576C11.688 12.688 10.272 12.688 7.992 12.688H5.28ZM17.1788 15.928C17.1788 20.176 20.2028 22.24 24.0188 22.24C27.8108 22.24 30.8348 20.176 30.8348 15.928C30.8348 11.704 27.8108 9.64 24.0188 9.64C20.2028 9.64 17.1788 11.704 17.1788 15.928ZM21.0188 15.928C21.0188 13.912 22.1948 13 24.0188 13C25.8188 13 26.9948 13.912 26.9948 15.928C26.9948 17.968 25.8188 18.88 24.0188 18.88C22.1948 18.88 21.0188 17.968 21.0188 15.928ZM43.8221 18.664C43.8221 16.144 41.6621 15.544 39.3101 14.776C37.3901 14.152 36.1901 13.792 36.1901 13.216C36.1901 12.736 36.6941 12.52 37.6061 12.52C38.9261 12.52 39.5741 13.168 39.5741 14.032H43.4141C43.4141 11.68 41.7341 9.64 37.6301 9.64C34.2941 9.64 32.3501 10.888 32.3501 13.048C32.3501 15.76 35.1101 16.36 37.3661 17.104C39.3101 17.752 39.9821 17.92 39.9821 18.544C39.9821 19.12 39.3341 19.36 38.3021 19.36C36.2861 19.36 35.6381 18.544 35.6381 17.608H31.7981C31.7981 20.44 33.7181 22.24 38.1821 22.24C42.3581 22.24 43.8221 20.704 43.8221 18.664ZM45.0225 15.784C45.0225 19.216 47.1585 22.24 51.8145 22.24C56.0145 22.24 58.0065 19.48 58.2465 17.728H54.4065C54.1665 18.64 53.1585 19.12 51.8145 19.12C49.6305 19.12 48.6225 18.136 48.6225 16.744H57.8145V15.544C57.8145 11.872 55.1745 9.64 51.4065 9.64C47.6385 9.64 45.0225 11.944 45.0225 15.784ZM48.6225 14.584C48.6225 13.672 49.2705 12.76 51.4065 12.76C53.5425 12.76 54.2145 13.672 54.2145 14.584H48.6225ZM68.5853 9.88L65.9453 16.552V18.472H64.9853V16.552L62.3213 9.88H58.0013L63.5453 21.28V23.584L59.3933 23.512V26.872L65.3213 27.04C66.6413 27.088 67.3853 26.368 67.3853 25.024V21.28L72.9293 9.88H68.5853Z" fill="white"></path> <path d="M5.62591 41.0833L4.16609 44.2949V45.1932H3.71692V44.2949L2.24587 41.0833H0.336881L3.04316 46.5295V47.529L1.10048 47.4616V49.0337L3.87413 49.1123C4.49174 49.1348 4.83985 48.7979 4.83985 48.169V46.5295L7.54613 41.0833H5.62591ZM7.09731 46.8215C7.09731 48.4161 8.14164 49.1123 9.9271 49.1123C11.6115 49.1123 12.5548 48.461 12.5548 47.484C12.5548 46.5969 11.8586 46.3162 11.2522 46.3162V45.867C11.8586 45.867 12.4425 45.6087 12.4425 44.7665C12.4425 43.857 11.5666 43.2169 9.88219 43.2169C8.09672 43.2169 7.2096 43.9019 7.2096 45.1596H8.894C8.894 44.5981 9.10736 44.4521 9.88219 44.4521C10.4886 44.4521 10.7581 44.5644 10.7581 44.9574C10.7581 45.3055 10.5223 45.474 10.0282 45.474H9.4667V46.7092H10.0282C10.5223 46.7092 10.8704 46.7878 10.8704 47.2707C10.8704 47.7086 10.5223 47.8771 9.9271 47.8771C9.14105 47.8771 8.78171 47.7199 8.78171 46.8215H7.09731ZM17.809 43.3292V45.3729H15.1364V43.3292H13.3397V49H15.1364V46.945H17.809V49H19.6057V43.3292H17.809ZM20.7256 47.4503C20.7256 48.0343 21.0288 49.1123 22.7918 49.1123C24.3752 49.1123 24.9254 48.315 25.1388 47.3717H25.5879L25.3072 48.0455V48.1578C25.3072 48.6968 25.6104 49 26.1494 49H27.3959V47.4279H26.5761V45.8333C26.5761 43.9692 25.2061 43.2169 23.6453 43.2169C22.0619 43.2169 20.8379 44.0591 20.8379 45.4964H22.5223C22.5223 44.9799 22.9266 44.6767 23.6453 44.6767C24.4201 44.6767 24.7794 44.9574 24.7794 45.4178L22.994 45.6649C21.3095 45.9007 20.7256 46.4734 20.7256 47.4503ZM22.5223 47.1135C22.5223 46.7878 22.7918 46.7092 23.3308 46.6306L24.7794 46.4285C24.7794 47.1247 24.1281 47.5402 23.1399 47.5402C22.8367 47.5402 22.5223 47.4391 22.5223 47.1135ZM33.0047 43.3292H26.9408V44.9013H29.0744V49H30.8711V44.9013H33.0047V43.3292ZM36.6161 44.5532H35.8076V43.3292H34.0109V49H36.6161C37.9412 49 39.3561 48.6182 39.3561 46.7766C39.3561 44.935 37.9412 44.5532 36.6161 44.5532ZM35.8076 47.4279V46.1253H36.5038C37.2562 46.1253 37.5594 46.2039 37.5594 46.7766C37.5594 47.3493 37.2562 47.4279 36.5038 47.4279H35.8076ZM49.4001 43.3292H43.6282V49H45.4249V44.9013H47.6034V49H49.4001V43.3292ZM50.5207 46.159C50.5207 48.1466 51.9356 49.1123 53.7211 49.1123C55.4953 49.1123 56.9102 48.1466 56.9102 46.159C56.9102 44.1826 55.4953 43.2169 53.7211 43.2169C51.9356 43.2169 50.5207 44.1826 50.5207 46.159ZM52.3174 46.159C52.3174 45.2157 52.8676 44.789 53.7211 44.789C54.5633 44.789 55.1135 45.2157 55.1135 46.159C55.1135 47.1135 54.5633 47.5402 53.7211 47.5402C52.8676 47.5402 52.3174 47.1135 52.3174 46.159ZM63.4103 47.4279V43.3292H58.7164C58.7164 45.5301 58.4918 46.6194 57.8854 47.4279H57.1443V50.5721H58.941V49H62.3547V50.5721H64.1514V47.4279H63.4103ZM59.6821 47.4279C60.1201 46.844 60.3671 46.1028 60.4569 44.9013H61.6136V47.4279H59.6821ZM65.0452 43.3292V51.1336H66.8419V48.6519L66.505 47.6412H66.9542C67.2461 48.3936 67.7851 49.1123 69.1888 49.1123C70.8283 49.1123 71.648 47.776 71.648 46.1702C71.648 44.5644 70.8283 43.2169 69.1888 43.2169C67.7851 43.2169 67.2461 43.9356 66.9542 44.6879H66.505L66.8419 43.6773V43.3292H65.0452ZM66.8419 46.1702C66.8419 45.2045 67.3809 44.789 68.3466 44.789C69.3123 44.789 69.8513 45.2045 69.8513 46.1702C69.8513 47.1359 69.3123 47.5402 68.3466 47.5402C67.3809 47.5402 66.8419 47.1359 66.8419 46.1702ZM72.5517 46.159C72.5517 48.1466 73.9666 49.1123 75.7521 49.1123C77.5263 49.1123 78.9412 48.1466 78.9412 46.159C78.9412 44.1826 77.5263 43.2169 75.7521 43.2169C73.9666 43.2169 72.5517 44.1826 72.5517 46.159ZM74.3484 46.159C74.3484 45.2157 74.8987 44.789 75.7521 44.789C76.5943 44.789 77.1446 45.2157 77.1446 46.159C77.1446 47.1135 76.5943 47.5402 75.7521 47.5402C74.8987 47.5402 74.3484 47.1135 74.3484 46.159ZM79.9565 45.328C79.9565 47.7311 81.1693 49.1123 83.3478 49.1123C85.706 49.1123 86.7278 47.7985 86.7278 46.0916C86.7278 44.4521 85.56 43.2169 83.8194 43.2169C82.3372 43.2169 81.3602 44.1152 81.1132 45.6649H80.664L81.1132 44.6542C81.3377 43.5088 82.0115 42.9474 83.5387 42.6217C85.0547 42.2961 86.5594 41.8806 86.7615 40.2972H84.7402C84.6392 40.724 84.2686 40.9373 82.8649 41.3865C81.0458 41.9704 79.9565 42.9698 79.9565 45.328ZM81.7532 46.159C81.7532 45.2494 82.3372 44.789 83.3478 44.789C84.3584 44.789 84.9311 45.2494 84.9311 46.159C84.9311 47.0686 84.3584 47.5402 83.3478 47.5402C82.3372 47.5402 81.7532 47.0686 81.7532 46.159ZM92.357 43.3292V45.3729H89.6844V43.3292H87.8877V49H89.6844V46.945H92.357V49H94.1537V43.3292H92.357ZM95.164 46.0916C95.164 47.6974 96.1634 49.1123 98.3419 49.1123C100.307 49.1123 101.239 47.8209 101.351 47.0012H99.5547C99.4424 47.4279 98.9707 47.6525 98.3419 47.6525C97.32 47.6525 96.8484 47.1921 96.8484 46.5408H101.149V45.9793C101.149 44.2612 99.914 43.2169 98.151 43.2169C96.388 43.2169 95.164 44.2949 95.164 46.0916ZM96.8484 45.5301C96.8484 45.1034 97.1516 44.6767 98.151 44.6767C99.1504 44.6767 99.4648 45.1034 99.4648 45.5301H96.8484ZM101.908 46.0916C101.908 47.6974 102.908 49.1123 105.086 49.1123C107.051 49.1123 107.983 47.8209 108.096 47.0012H106.299C106.187 47.4279 105.715 47.6525 105.086 47.6525C104.064 47.6525 103.593 47.1921 103.593 46.5408H107.893V45.9793C107.893 44.2612 106.658 43.2169 104.895 43.2169C103.132 43.2169 101.908 44.2949 101.908 46.0916ZM103.593 45.5301C103.593 45.1034 103.896 44.6767 104.895 44.6767C105.895 44.6767 106.209 45.1034 106.209 45.5301H103.593Z" fill="white"></path> <path d="M128.787 41.743L128.079 42.4772L131.083 45.591H118.027V46.629H131.083L128.079 49.7428L128.787 50.477L133 46.1107L128.787 41.7444V41.743Z" fill="white" stroke="white" stroke-width="0.249541" stroke-linecap="round" stroke-linejoin="round"></path> </svg> 