<?xml version="1.0" encoding="UTF-8"?> <svg xmlns="http://www.w3.org/2000/svg" width="217" height="85" viewBox="0 0 217 85" fill="none"> <path d="M1.44 22H5.28V8.44L4.56 6.04H5.52L8.232 22H15.672L18.384 6.04H19.344L18.624 8.44V22H22.464V5.08H14.904L12.432 21.04H11.472L9 5.08H1.44V22ZM34.6639 9.88V14.248H28.9519V9.88H25.1119V22H28.9519V17.608H34.6639V22H38.5039V9.88H34.6639ZM40.6631 15.928C40.6631 20.176 43.6871 22.24 47.5031 22.24C51.2951 22.24 54.3191 20.176 54.3191 15.928C54.3191 11.704 51.2951 9.64 47.5031 9.64C43.6871 9.64 40.6631 11.704 40.6631 15.928ZM44.5031 15.928C44.5031 13.912 45.6791 13 47.5031 13C49.3031 13 50.4791 13.912 50.4791 15.928C50.4791 17.968 49.3031 18.88 47.5031 18.88C45.6791 18.88 44.5031 17.968 44.5031 15.928ZM56.0025 22H59.8425V13.24H66.2745V9.88H56.0025V22ZM67.2413 15.928C67.2413 20.176 70.2653 22.24 74.0813 22.24C77.8733 22.24 80.8973 20.176 80.8973 15.928C80.8973 11.704 77.8733 9.64 74.0813 9.64C70.2653 9.64 67.2413 11.704 67.2413 15.928ZM71.0813 15.928C71.0813 13.912 72.2573 13 74.0813 13C75.8813 13 77.0573 13.912 77.0573 15.928C77.0573 17.968 75.8813 18.88 74.0813 18.88C72.2573 18.88 71.0813 17.968 71.0813 15.928ZM82.5806 9.88V26.56H86.4206V21.256L85.7006 19.096H86.6606C87.2846 20.704 88.4366 22.24 91.4366 22.24C94.9406 22.24 96.6926 19.384 96.6926 15.952C96.6926 12.52 94.9406 9.64 91.4366 9.64C88.4366 9.64 87.2846 11.176 86.6606 12.784H85.7006L86.4206 10.624V9.88H82.5806ZM86.4206 15.952C86.4206 13.888 87.5726 13 89.6366 13C91.7006 13 92.8526 13.888 92.8526 15.952C92.8526 18.016 91.7006 18.88 89.6366 18.88C87.5726 18.88 86.4206 18.016 86.4206 15.952ZM98.6241 18.688C98.6241 19.936 99.2721 22.24 103.04 22.24C106.424 22.24 107.6 20.536 108.056 18.52H109.016L108.416 19.96V20.2C108.416 21.352 109.064 22 110.216 22H112.88V18.64H111.128V15.232C111.128 11.248 108.2 9.64 104.864 9.64C101.48 9.64 98.8641 11.44 98.8641 14.512H102.464C102.464 13.408 103.328 12.76 104.864 12.76C106.52 12.76 107.288 13.36 107.288 14.344L103.472 14.872C99.8721 15.376 98.6241 16.6 98.6241 18.688ZM102.464 17.968C102.464 17.272 103.04 17.104 104.192 16.936L107.288 16.504C107.288 17.992 105.896 18.88 103.784 18.88C103.136 18.88 102.464 18.664 102.464 17.968ZM114.309 17.344C114.309 20.752 116.541 22.24 120.357 22.24C123.957 22.24 125.973 20.848 125.973 18.76C125.973 16.864 124.485 16.264 123.189 16.264V15.304C124.485 15.304 125.733 14.752 125.733 12.952C125.733 11.008 123.861 9.64 120.261 9.64C116.445 9.64 114.549 11.104 114.549 13.792H118.149C118.149 12.592 118.605 12.28 120.261 12.28C121.557 12.28 122.133 12.52 122.133 13.36C122.133 14.104 121.629 14.464 120.573 14.464H119.373V17.104H120.573C121.629 17.104 122.373 17.272 122.373 18.304C122.373 19.24 121.629 19.6 120.357 19.6C118.677 19.6 117.909 19.264 117.909 17.344H114.309ZM128.132 15.928C128.132 20.176 131.156 22.24 134.972 22.24C138.764 22.24 141.788 20.176 141.788 15.928C141.788 11.704 138.764 9.64 134.972 9.64C131.156 9.64 128.132 11.704 128.132 15.928ZM131.972 15.928C131.972 13.912 133.148 13 134.972 13C136.772 13 137.948 13.912 137.948 15.928C137.948 17.968 136.772 18.88 134.972 18.88C133.148 18.88 131.972 17.968 131.972 15.928ZM143.471 22H149.999C153.071 22 155.135 21.184 155.135 18.856C155.135 16.576 153.167 16.24 151.583 16.216V15.256C152.543 15.184 154.247 14.896 154.247 12.736C154.247 10.456 152.183 9.88 149.111 9.88H143.471V22ZM147.071 14.488V12.52H149.111C150.263 12.52 150.647 12.664 150.647 13.504C150.647 14.416 150.263 14.488 149.111 14.488H147.071ZM147.071 19.36V17.128H149.999C151.127 17.128 151.535 17.32 151.535 18.232C151.535 19.072 151.127 19.36 149.999 19.36H147.071ZM162.867 12.496H161.139V9.88H157.299V22H162.867C165.699 22 168.723 21.184 168.723 17.248C168.723 13.312 165.699 12.496 162.867 12.496ZM170.571 22H174.411V9.88H170.571V22ZM161.139 18.64V15.856H162.627C164.235 15.856 164.883 16.024 164.883 17.248C164.883 18.472 164.235 18.64 162.627 18.64H161.139ZM176.812 15.784C176.812 19.216 178.948 22.24 183.604 22.24C187.804 22.24 189.796 19.48 190.036 17.728H186.196C185.956 18.64 184.948 19.12 183.604 19.12C181.42 19.12 180.412 18.136 180.412 16.744H189.604V15.544C189.604 11.872 186.964 9.64 183.196 9.64C179.428 9.64 176.812 11.944 176.812 15.784ZM180.412 14.584C180.412 13.672 181.06 12.76 183.196 12.76C185.332 12.76 186.004 13.672 186.004 14.584H180.412ZM11.304 40.88L8.664 47.552V49.472H7.704V47.552L5.04 40.88H0.72L6.264 52.28V54.584L2.112 54.512V57.872L8.04 58.04C9.36 58.088 10.104 57.368 10.104 56.024V52.28L15.648 40.88H11.304ZM15.8897 46.928C15.8897 50.984 18.6497 53.24 22.5137 53.24C25.8257 53.24 28.8497 51.44 29.0177 47.984H25.1777C25.0337 49.064 24.0497 49.88 22.5137 49.88C20.6897 49.88 19.7297 48.8 19.7297 46.928C19.7297 45.08 20.6897 44 22.5137 44C24.0497 44 25.0337 44.816 25.1777 45.896H29.0177C28.8497 42.44 25.8257 40.64 22.5137 40.64C18.6497 40.64 15.8897 42.896 15.8897 46.928ZM42.4613 40.88H29.5013V44.24H34.0613V53H37.9013V44.24H42.4613V40.88ZM44.1431 40.88V57.56H47.9831V52.256L47.2631 50.096H48.2231C48.8471 51.704 49.9991 53.24 52.9991 53.24C56.5031 53.24 58.2551 50.384 58.2551 46.952C58.2551 43.52 56.5031 40.64 52.9991 40.64C49.9991 40.64 48.8471 42.176 48.2231 43.784H47.2631L47.9831 41.624V40.88H44.1431ZM47.9831 46.952C47.9831 44.888 49.1351 44 51.1991 44C53.2631 44 54.4151 44.888 54.4151 46.952C54.4151 49.016 53.2631 49.88 51.1991 49.88C49.1351 49.88 47.9831 49.016 47.9831 46.952ZM60.1866 46.928C60.1866 51.176 63.2106 53.24 67.0266 53.24C70.8186 53.24 73.8426 51.176 73.8426 46.928C73.8426 42.704 70.8186 40.64 67.0266 40.64C63.2106 40.64 60.1866 42.704 60.1866 46.928ZM64.0266 46.928C64.0266 44.912 65.2026 44 67.0266 44C68.8266 44 70.0026 44.912 70.0026 46.928C70.0026 48.968 68.8266 49.88 67.0266 49.88C65.2026 49.88 64.0266 48.968 64.0266 46.928ZM87.1419 34.904H84.2619C84.2619 36.584 83.6859 37.04 82.7499 37.04C81.8139 37.04 81.2379 36.584 81.2379 34.904H78.3579C78.3579 37.352 79.5099 39.68 82.7499 39.68C85.9899 39.68 87.1419 37.352 87.1419 34.904ZM89.7339 53V40.88H82.2219L79.6059 52.04H78.6459L79.3659 49.88V40.88H75.5259V53H83.0379L85.6539 41.84H86.6139L85.8939 43.88V53H89.7339ZM91.6631 46.928C91.6631 50.984 94.4231 53.24 98.2871 53.24C101.599 53.24 104.623 51.44 104.791 47.984H100.951C100.807 49.064 99.8231 49.88 98.2871 49.88C96.4631 49.88 95.5031 48.8 95.5031 46.928C95.5031 45.08 96.4631 44 98.2871 44C99.8231 44 100.807 44.816 100.951 45.896H104.791C104.623 42.44 101.599 40.64 98.2871 40.64C94.4231 40.64 91.6631 42.896 91.6631 46.928ZM118.235 40.88H105.275V44.24H109.835V53H113.675V44.24H118.235V40.88ZM119.917 53H126.445C129.517 53 131.581 52.184 131.581 49.856C131.581 47.576 129.613 47.24 128.029 47.216V46.256C128.989 46.184 130.693 45.896 130.693 43.736C130.693 41.456 128.629 40.88 125.557 40.88H119.917V53ZM123.517 45.488V43.52H125.557C126.709 43.52 127.093 43.664 127.093 44.504C127.093 45.416 126.709 45.488 125.557 45.488H123.517ZM123.517 50.36V48.128H126.445C127.573 48.128 127.981 48.32 127.981 49.232C127.981 50.072 127.573 50.36 126.445 50.36H123.517ZM133.265 49.688C133.265 50.936 133.913 53.24 137.681 53.24C141.065 53.24 142.241 51.536 142.697 49.52H143.657L143.057 50.96V51.2C143.057 52.352 143.705 53 144.857 53H147.521V49.64H145.769V46.232C145.769 42.248 142.841 40.64 139.505 40.64C136.121 40.64 133.505 42.44 133.505 45.512H137.105C137.105 44.408 137.969 43.76 139.505 43.76C141.161 43.76 141.929 44.36 141.929 45.344L138.113 45.872C134.513 46.376 133.265 47.6 133.265 49.688ZM137.105 48.968C137.105 48.272 137.681 48.104 138.833 47.936L141.929 47.504C141.929 48.992 140.537 49.88 138.425 49.88C137.777 49.88 137.105 49.664 137.105 48.968ZM168.253 36.08V43.088H159.757V36.08H155.917V53H159.757V46.448H168.253V53H172.093V36.08H168.253ZM186.149 53.72C189.029 52.16 191.741 49.328 191.741 44.528C191.741 39.368 188.237 35.84 182.885 35.84C177.509 35.84 174.005 39.608 174.005 44.528C174.005 49.712 177.509 53 181.493 53C183.773 53 184.877 52.496 185.741 51.776L186.269 52.64C183.677 54.104 180.197 54.32 177.773 54.56L178.085 57.68C184.085 56.816 188.141 56.648 194.765 57.56V54.2C190.949 53.696 188.573 53.528 186.149 53.72ZM182.885 49.88C179.693 49.88 177.845 47.792 177.845 44.528C177.845 41.288 179.693 39.2 182.885 39.2C186.077 39.2 187.901 41.288 187.901 44.528C187.901 47.792 186.077 49.88 182.885 49.88ZM200.055 36.08H193.815V53H200.055C204.567 53 209.271 51.824 209.271 44.528C209.271 37.256 204.567 36.08 200.055 36.08ZM200.055 49.64H197.655V39.44H200.055C203.055 39.44 205.431 39.68 205.431 44.528C205.431 49.4 203.055 49.64 200.055 49.64Z" fill="white"></path> <path d="M5.62591 72.0833L4.16609 75.2949V76.1932H3.71692V75.2949L2.24587 72.0833H0.336881L3.04316 77.5295V78.529L1.10048 78.4616V80.0337L3.87413 80.1123C4.49174 80.1348 4.83985 79.7979 4.83985 79.169V77.5295L7.54613 72.0833H5.62591ZM7.09731 77.8215C7.09731 79.4161 8.14164 80.1123 9.9271 80.1123C11.6115 80.1123 12.5548 79.461 12.5548 78.484C12.5548 77.5969 11.8586 77.3162 11.2522 77.3162V76.867C11.8586 76.867 12.4425 76.6087 12.4425 75.7665C12.4425 74.857 11.5666 74.2169 9.88219 74.2169C8.09672 74.2169 7.2096 74.9019 7.2096 76.1596H8.894C8.894 75.5981 9.10736 75.4521 9.88219 75.4521C10.4886 75.4521 10.7581 75.5644 10.7581 75.9574C10.7581 76.3055 10.5223 76.474 10.0282 76.474H9.4667V77.7092H10.0282C10.5223 77.7092 10.8704 77.7878 10.8704 78.2707C10.8704 78.7086 10.5223 78.8771 9.9271 78.8771C9.14105 78.8771 8.78171 78.7199 8.78171 77.8215H7.09731ZM17.809 74.3292V76.3729H15.1364V74.3292H13.3397V80H15.1364V77.945H17.809V80H19.6057V74.3292H17.809ZM20.7256 78.4503C20.7256 79.0343 21.0288 80.1123 22.7918 80.1123C24.3752 80.1123 24.9254 79.315 25.1388 78.3717H25.5879L25.3072 79.0455V79.1578C25.3072 79.6968 25.6104 80 26.1494 80H27.3959V78.4279H26.5761V76.8333C26.5761 74.9692 25.2061 74.2169 23.6453 74.2169C22.0619 74.2169 20.8379 75.0591 20.8379 76.4964H22.5223C22.5223 75.9799 22.9266 75.6767 23.6453 75.6767C24.4201 75.6767 24.7794 75.9574 24.7794 76.4178L22.994 76.6649C21.3095 76.9007 20.7256 77.4734 20.7256 78.4503ZM22.5223 78.1135C22.5223 77.7878 22.7918 77.7092 23.3308 77.6306L24.7794 77.4285C24.7794 78.1247 24.1281 78.5402 23.1399 78.5402C22.8367 78.5402 22.5223 78.4391 22.5223 78.1135ZM33.0047 74.3292H26.9408V75.9013H29.0744V80H30.8711V75.9013H33.0047V74.3292ZM36.6161 75.5532H35.8076V74.3292H34.0109V80H36.6161C37.9412 80 39.3561 79.6182 39.3561 77.7766C39.3561 75.935 37.9412 75.5532 36.6161 75.5532ZM35.8076 78.4279V77.1253H36.5038C37.2562 77.1253 37.5594 77.2039 37.5594 77.7766C37.5594 78.3493 37.2562 78.4279 36.5038 78.4279H35.8076ZM49.4001 74.3292H43.6282V80H45.4249V75.9013H47.6034V80H49.4001V74.3292ZM50.5207 77.159C50.5207 79.1466 51.9356 80.1123 53.7211 80.1123C55.4953 80.1123 56.9102 79.1466 56.9102 77.159C56.9102 75.1826 55.4953 74.2169 53.7211 74.2169C51.9356 74.2169 50.5207 75.1826 50.5207 77.159ZM52.3174 77.159C52.3174 76.2157 52.8676 75.789 53.7211 75.789C54.5633 75.789 55.1135 76.2157 55.1135 77.159C55.1135 78.1135 54.5633 78.5402 53.7211 78.5402C52.8676 78.5402 52.3174 78.1135 52.3174 77.159ZM63.4103 78.4279V74.3292H58.7164C58.7164 76.5301 58.4918 77.6194 57.8854 78.4279H57.1443V81.5721H58.941V80H62.3547V81.5721H64.1514V78.4279H63.4103ZM59.6821 78.4279C60.1201 77.844 60.3671 77.1028 60.4569 75.9013H61.6136V78.4279H59.6821ZM65.0452 74.3292V82.1336H66.8419V79.6519L66.505 78.6412H66.9542C67.2461 79.3936 67.7851 80.1123 69.1888 80.1123C70.8283 80.1123 71.648 78.776 71.648 77.1702C71.648 75.5644 70.8283 74.2169 69.1888 74.2169C67.7851 74.2169 67.2461 74.9356 66.9542 75.6879H66.505L66.8419 74.6773V74.3292H65.0452ZM66.8419 77.1702C66.8419 76.2045 67.3809 75.789 68.3466 75.789C69.3123 75.789 69.8513 76.2045 69.8513 77.1702C69.8513 78.1359 69.3123 78.5402 68.3466 78.5402C67.3809 78.5402 66.8419 78.1359 66.8419 77.1702ZM72.5517 77.159C72.5517 79.1466 73.9666 80.1123 75.7521 80.1123C77.5263 80.1123 78.9412 79.1466 78.9412 77.159C78.9412 75.1826 77.5263 74.2169 75.7521 74.2169C73.9666 74.2169 72.5517 75.1826 72.5517 77.159ZM74.3484 77.159C74.3484 76.2157 74.8987 75.789 75.7521 75.789C76.5943 75.789 77.1446 76.2157 77.1446 77.159C77.1446 78.1135 76.5943 78.5402 75.7521 78.5402C74.8987 78.5402 74.3484 78.1135 74.3484 77.159ZM79.9565 76.328C79.9565 78.7311 81.1693 80.1123 83.3478 80.1123C85.706 80.1123 86.7278 78.7985 86.7278 77.0916C86.7278 75.4521 85.56 74.2169 83.8194 74.2169C82.3372 74.2169 81.3602 75.1152 81.1132 76.6649H80.664L81.1132 75.6542C81.3377 74.5088 82.0115 73.9474 83.5387 73.6217C85.0547 73.2961 86.5594 72.8806 86.7615 71.2972H84.7402C84.6392 71.724 84.2686 71.9373 82.8649 72.3865C81.0458 72.9704 79.9565 73.9698 79.9565 76.328ZM81.7532 77.159C81.7532 76.2494 82.3372 75.789 83.3478 75.789C84.3584 75.789 84.9311 76.2494 84.9311 77.159C84.9311 78.0686 84.3584 78.5402 83.3478 78.5402C82.3372 78.5402 81.7532 78.0686 81.7532 77.159ZM92.357 74.3292V76.3729H89.6844V74.3292H87.8877V80H89.6844V77.945H92.357V80H94.1537V74.3292H92.357ZM95.164 77.0916C95.164 78.6974 96.1634 80.1123 98.3419 80.1123C100.307 80.1123 101.239 78.8209 101.351 78.0012H99.5547C99.4424 78.4279 98.9707 78.6525 98.3419 78.6525C97.32 78.6525 96.8484 78.1921 96.8484 77.5408H101.149V76.9793C101.149 75.2612 99.914 74.2169 98.151 74.2169C96.388 74.2169 95.164 75.2949 95.164 77.0916ZM96.8484 76.5301C96.8484 76.1034 97.1516 75.6767 98.151 75.6767C99.1504 75.6767 99.4648 76.1034 99.4648 76.5301H96.8484ZM101.908 77.0916C101.908 78.6974 102.908 80.1123 105.086 80.1123C107.051 80.1123 107.983 78.8209 108.096 78.0012H106.299C106.187 78.4279 105.715 78.6525 105.086 78.6525C104.064 78.6525 103.593 78.1921 103.593 77.5408H107.893V76.9793C107.893 75.2612 106.658 74.2169 104.895 74.2169C103.132 74.2169 101.908 75.2949 101.908 77.0916ZM103.593 76.5301C103.593 76.1034 103.896 75.6767 104.895 75.6767C105.895 75.6767 106.209 76.1034 106.209 76.5301H103.593Z" fill="white"></path> <path d="M128.787 72.743L128.079 73.4772L131.083 76.591H118.027V77.629H131.083L128.079 80.7428L128.787 81.477L133 77.1107L128.787 72.7444V72.743Z" fill="white" stroke="white" stroke-width="0.249541" stroke-linecap="round" stroke-linejoin="round"></path> </svg> 