<?xml version="1.0" encoding="UTF-8"?> <svg xmlns="http://www.w3.org/2000/svg" width="391" height="197" viewBox="0 0 391 197" fill="none"> <g filter="url(#filter0_di)"> <rect x="74" y="74" width="243" height="49" fill="#FF188F"></rect> </g> <path d="M154.9 102H158.8C161.56 102 163.765 101.595 163.765 99.195C163.765 96.945 162.055 96.795 160.45 96.735V96.135C161.575 96.045 162.985 96 162.985 94.02C162.985 91.935 161.56 91.425 158.62 91.425H154.9V102ZM157.3 95.445V93.525H158.92C159.895 93.525 160.585 93.525 160.585 94.485C160.585 95.445 159.895 95.445 158.92 95.445H157.3ZM157.3 99.9V97.545H159.1C160.525 97.545 161.365 97.545 161.365 98.73C161.365 99.9 160.525 99.9 159.1 99.9H157.3ZM169.622 102H172.022V96.375L171.572 95.025H172.172L172.967 102H177.647L178.457 95.025H179.057L178.607 96.375V102H181.007V94.425H176.237L175.607 101.4H175.007L174.377 94.425H169.622V102ZM182.505 99.93C182.505 100.71 182.91 102.15 185.265 102.15C187.38 102.15 188.115 101.085 188.4 99.825H189L188.625 100.725V100.875C188.625 101.595 189.03 102 189.75 102H191.415V99.9H190.32V97.77C190.32 95.28 188.49 94.275 186.405 94.275C184.29 94.275 182.655 95.4 182.655 97.32H184.905C184.905 96.63 185.445 96.225 186.405 96.225C187.44 96.225 187.92 96.6 187.92 97.215L185.535 97.545C183.285 97.86 182.505 98.625 182.505 99.93ZM184.905 99.48C184.905 99.045 185.265 98.94 185.985 98.835L187.92 98.565C187.92 99.495 187.05 100.05 185.73 100.05C185.325 100.05 184.905 99.915 184.905 99.48ZM192.312 102H194.712V96.525H198.732V94.425H192.312V102ZM199.19 99.93C199.19 100.71 199.595 102.15 201.95 102.15C204.065 102.15 204.8 101.085 205.085 99.825H205.685L205.31 100.725V100.875C205.31 101.595 205.715 102 206.435 102H208.1V99.9H207.005V97.77C207.005 95.28 205.175 94.275 203.09 94.275C200.975 94.275 199.34 95.4 199.34 97.32H201.59C201.59 96.63 202.13 96.225 203.09 96.225C204.125 96.225 204.605 96.6 204.605 97.215L202.22 97.545C199.97 97.86 199.19 98.625 199.19 99.93ZM201.59 99.48C201.59 99.045 201.95 98.94 202.67 98.835L204.605 98.565C204.605 99.495 203.735 100.05 202.415 100.05C202.01 100.05 201.59 99.915 201.59 99.48ZM208.993 99.09C208.993 101.22 210.388 102.15 212.773 102.15C215.023 102.15 216.283 101.28 216.283 99.975C216.283 98.79 215.353 98.415 214.543 98.415V97.815C215.353 97.815 216.133 97.47 216.133 96.345C216.133 95.13 214.963 94.275 212.713 94.275C210.328 94.275 209.143 95.19 209.143 96.87H211.393C211.393 96.12 211.678 95.925 212.713 95.925C213.523 95.925 213.883 96.075 213.883 96.6C213.883 97.065 213.568 97.29 212.908 97.29H212.158V98.94H212.908C213.568 98.94 214.033 99.045 214.033 99.69C214.033 100.275 213.568 100.5 212.773 100.5C211.723 100.5 211.243 100.29 211.243 99.09H208.993ZM226.212 102V94.425H221.517L219.882 101.4H219.282L219.732 100.05V94.425H217.332V102H222.027L223.662 95.025H224.262L223.812 96.3V102H226.212ZM233.687 94.425V97.155H230.117V94.425H227.717V102H230.117V99.255H233.687V102H236.087V94.425H233.687Z" fill="#09102C"></path> <defs> <filter id="filter0_di" x="0" y="0" width="391" height="197" filterUnits="userSpaceOnUse" color-interpolation-filters="sRGB"> <feFlood flood-opacity="0" result="BackgroundImageFix"></feFlood> <feColorMatrix in="SourceAlpha" type="matrix" values="0 0 0 0 0 0 0 0 0 0 0 0 0 0 0 0 0 0 127 0"></feColorMatrix> <feOffset></feOffset> <feGaussianBlur stdDeviation="37"></feGaussianBlur> <feColorMatrix type="matrix" values="0 0 0 0 1 0 0 0 0 0.0941176 0 0 0 0 0.560784 0 0 0 0.67 0"></feColorMatrix> <feBlend mode="normal" in2="BackgroundImageFix" result="effect1_dropShadow"></feBlend> <feBlend mode="normal" in="SourceGraphic" in2="effect1_dropShadow" result="shape"></feBlend> <feColorMatrix in="SourceAlpha" type="matrix" values="0 0 0 0 0 0 0 0 0 0 0 0 0 0 0 0 0 0 127 0" result="hardAlpha"></feColorMatrix> <feOffset></feOffset> <feGaussianBlur stdDeviation="5.5"></feGaussianBlur> <feComposite in2="hardAlpha" operator="arithmetic" k2="-1" k3="1"></feComposite> <feColorMatrix type="matrix" values="0 0 0 0 1 0 0 0 0 1 0 0 0 0 1 0 0 0 0.26 0"></feColorMatrix> <feBlend mode="normal" in2="shape" result="effect2_innerShadow"></feBlend> </filter> </defs> </svg> 