<?xml version="1.0" encoding="UTF-8"?> <svg xmlns="http://www.w3.org/2000/svg" width="224" height="59" viewBox="0 0 224 59" fill="none"> <g filter="url(#filter0_d)"> <rect x="5.5" y="5.5" width="213" height="48" stroke="white"></rect> </g> <path d="M58.912 33V21.72H56.272L50.64 32.632H50.272L50.48 31.688V21.72H49.184V33H51.824L57.44 22.088H57.808L57.6 23.032V33H58.912ZM61.0861 29.896C61.0861 32.168 62.3501 33.16 64.4941 33.16C66.4941 33.16 67.6141 32.232 67.6141 30.776C67.6141 29.64 66.8461 29.112 65.8541 28.968V28.6C66.8461 28.472 67.4541 27.96 67.4541 26.968C67.4541 25.8 66.4301 24.888 64.4301 24.888C62.2861 24.888 61.2461 25.864 61.2461 27.528H62.5261C62.5261 26.456 62.8781 25.928 64.4301 25.928C65.8381 25.928 66.1741 26.408 66.1741 27.112C66.1741 27.848 65.8861 28.264 64.9101 28.264H63.8381V29.32H64.9101C65.8861 29.32 66.3341 29.72 66.3341 30.632C66.3341 31.608 65.8861 32.12 64.4941 32.12C62.9421 32.12 62.3661 31.576 62.3661 29.896H61.0861ZM75.6446 25.048L73.1486 31.24V31.848H72.7646V31.24L70.2686 25.048H68.8286L72.3006 32.92V34.968L69.4366 34.824V35.944L72.5086 36.088C73.2606 36.12 73.6126 35.752 73.6126 35.144V32.92L77.0686 25.048H75.6446ZM84.8418 25.048V29L80.0738 29.32V25.048H78.7618V29.352C78.7618 30.104 79.1138 30.488 79.8658 30.44L84.8418 30.12V33H86.1538V25.048H84.8418ZM96.1281 33V25.048H93.5041L89.9681 32.632H89.6001L89.8081 31.848V25.048H88.4961V33H91.1361L94.6721 25.432H95.0401L94.8321 26.184V33H96.1281ZM104.984 25.048H97.6724V26.168H100.68V33H101.992V26.168H104.984V25.048ZM109.8 27.336H108.152V25.048H106.84V33H109.8C111.688 33 113.208 32.392 113.208 30.168C113.208 27.944 111.688 27.336 109.8 27.336ZM108.152 31.88V28.456H109.64C110.984 28.456 111.896 28.616 111.896 30.168C111.896 31.72 110.984 31.88 109.64 31.88H108.152ZM120.223 29.016C120.223 31.336 121.887 33.16 124.431 33.16C126.959 33.16 128.607 31.336 128.607 29.016C128.607 26.712 126.959 24.888 124.431 24.888C121.887 24.888 120.223 26.712 120.223 29.016ZM121.535 29.016C121.535 27.368 122.543 26.008 124.431 26.008C126.303 26.008 127.311 27.368 127.311 29.016C127.311 30.68 126.303 32.04 124.431 32.04C122.543 32.04 121.535 30.68 121.535 29.016ZM136.672 25.048H129.36V26.168H132.368V33H133.68V26.168H136.672V25.048ZM137.883 29.896C137.883 32.168 139.147 33.16 141.291 33.16C143.291 33.16 144.411 32.232 144.411 30.776C144.411 29.64 143.643 29.112 142.651 28.968V28.6C143.643 28.472 144.251 27.96 144.251 26.968C144.251 25.8 143.227 24.888 141.227 24.888C139.083 24.888 138.043 25.864 138.043 27.528H139.323C139.323 26.456 139.675 25.928 141.227 25.928C142.635 25.928 142.971 26.408 142.971 27.112C142.971 27.848 142.683 28.264 141.707 28.264H140.635V29.32H141.707C142.683 29.32 143.131 29.72 143.131 30.632C143.131 31.608 142.683 32.12 141.291 32.12C139.739 32.12 139.163 31.576 139.163 29.896H137.883ZM149.55 27.336H147.902V25.048H146.59V33H149.55C151.438 33 152.958 32.392 152.958 30.168C152.958 27.944 151.438 27.336 149.55 27.336ZM154.078 33H155.374V25.048H154.078V33ZM147.902 31.88V28.456H149.39C150.734 28.456 151.646 28.616 151.646 30.168C151.646 31.72 150.734 31.88 149.39 31.88H147.902ZM157.731 33H161.203C163.107 33 164.387 32.456 164.387 30.904C164.387 29.384 163.315 29.032 162.259 29.016V28.632C162.899 28.584 163.795 28.264 163.795 26.952C163.795 25.432 162.515 25.048 160.611 25.048H157.731V33ZM159.011 28.344V26.088H160.611C161.907 26.088 162.515 26.248 162.515 27.16C162.515 28.28 161.907 28.344 160.611 28.344H159.011ZM159.011 31.96V29.384H161.203C162.483 29.384 163.107 29.624 163.107 30.744C163.107 31.8 162.483 31.96 161.203 31.96H159.011ZM169.222 27.336H167.574V25.048H166.262V33H169.222C171.11 33 172.63 32.392 172.63 30.168C172.63 27.944 171.11 27.336 169.222 27.336ZM173.75 33H175.046V25.048H173.75V33ZM167.574 31.88V28.456H169.062C170.406 28.456 171.318 28.616 171.318 30.168C171.318 31.72 170.406 31.88 169.062 31.88H167.574Z" fill="white"></path> <defs> <filter id="filter0_d" x="0" y="0" width="224" height="59" filterUnits="userSpaceOnUse" color-interpolation-filters="sRGB"> <feFlood flood-opacity="0" result="BackgroundImageFix"></feFlood> <feColorMatrix in="SourceAlpha" type="matrix" values="0 0 0 0 0 0 0 0 0 0 0 0 0 0 0 0 0 0 127 0"></feColorMatrix> <feOffset></feOffset> <feGaussianBlur stdDeviation="2.5"></feGaussianBlur> <feColorMatrix type="matrix" values="0 0 0 0 1 0 0 0 0 0.0941176 0 0 0 0 0.560784 0 0 0 1 0"></feColorMatrix> <feBlend mode="normal" in2="BackgroundImageFix" result="effect1_dropShadow"></feBlend> <feBlend mode="normal" in="SourceGraphic" in2="effect1_dropShadow" result="shape"></feBlend> </filter> </defs> </svg> 