<?xml version="1.0" encoding="UTF-8"?> <svg xmlns="http://www.w3.org/2000/svg" width="409" height="54" viewBox="0 0 409 54" fill="none"> <path d="M1.44 22H5.28V8.44L4.56 6.04H5.52L8.232 22H15.672L18.384 6.04H19.344L18.624 8.44V22H22.464V5.08H14.904L12.432 21.04H11.472L9 5.08H1.44V22ZM34.6639 9.88V14.248H28.9519V9.88H25.1119V22H28.9519V17.608H34.6639V22H38.5039V9.88H34.6639ZM40.6631 15.928C40.6631 20.176 43.6871 22.24 47.5031 22.24C51.2951 22.24 54.3191 20.176 54.3191 15.928C54.3191 11.704 51.2951 9.64 47.5031 9.64C43.6871 9.64 40.6631 11.704 40.6631 15.928ZM44.5031 15.928C44.5031 13.912 45.6791 13 47.5031 13C49.3031 13 50.4791 13.912 50.4791 15.928C50.4791 17.968 49.3031 18.88 47.5031 18.88C45.6791 18.88 44.5031 17.968 44.5031 15.928ZM56.0025 22H59.8425V13.24H66.2745V9.88H56.0025V22ZM67.2413 15.928C67.2413 20.176 70.2653 22.24 74.0813 22.24C77.8733 22.24 80.8973 20.176 80.8973 15.928C80.8973 11.704 77.8733 9.64 74.0813 9.64C70.2653 9.64 67.2413 11.704 67.2413 15.928ZM71.0813 15.928C71.0813 13.912 72.2573 13 74.0813 13C75.8813 13 77.0573 13.912 77.0573 15.928C77.0573 17.968 75.8813 18.88 74.0813 18.88C72.2573 18.88 71.0813 17.968 71.0813 15.928ZM82.5806 9.88V26.56H86.4206V21.256L85.7006 19.096H86.6606C87.2846 20.704 88.4366 22.24 91.4366 22.24C94.9406 22.24 96.6926 19.384 96.6926 15.952C96.6926 12.52 94.9406 9.64 91.4366 9.64C88.4366 9.64 87.2846 11.176 86.6606 12.784H85.7006L86.4206 10.624V9.88H82.5806ZM86.4206 15.952C86.4206 13.888 87.5726 13 89.6366 13C91.7006 13 92.8526 13.888 92.8526 15.952C92.8526 18.016 91.7006 18.88 89.6366 18.88C87.5726 18.88 86.4206 18.016 86.4206 15.952ZM98.6241 18.688C98.6241 19.936 99.2721 22.24 103.04 22.24C106.424 22.24 107.6 20.536 108.056 18.52H109.016L108.416 19.96V20.2C108.416 21.352 109.064 22 110.216 22H112.88V18.64H111.128V15.232C111.128 11.248 108.2 9.64 104.864 9.64C101.48 9.64 98.8641 11.44 98.8641 14.512H102.464C102.464 13.408 103.328 12.76 104.864 12.76C106.52 12.76 107.288 13.36 107.288 14.344L103.472 14.872C99.8721 15.376 98.6241 16.6 98.6241 18.688ZM102.464 17.968C102.464 17.272 103.04 17.104 104.192 16.936L107.288 16.504C107.288 17.992 105.896 18.88 103.784 18.88C103.136 18.88 102.464 18.664 102.464 17.968ZM114.309 17.344C114.309 20.752 116.541 22.24 120.357 22.24C123.957 22.24 125.973 20.848 125.973 18.76C125.973 16.864 124.485 16.264 123.189 16.264V15.304C124.485 15.304 125.733 14.752 125.733 12.952C125.733 11.008 123.861 9.64 120.261 9.64C116.445 9.64 114.549 11.104 114.549 13.792H118.149C118.149 12.592 118.605 12.28 120.261 12.28C121.557 12.28 122.133 12.52 122.133 13.36C122.133 14.104 121.629 14.464 120.573 14.464H119.373V17.104H120.573C121.629 17.104 122.373 17.272 122.373 18.304C122.373 19.24 121.629 19.6 120.357 19.6C118.677 19.6 117.909 19.264 117.909 17.344H114.309ZM128.132 15.928C128.132 20.176 131.156 22.24 134.972 22.24C138.764 22.24 141.788 20.176 141.788 15.928C141.788 11.704 138.764 9.64 134.972 9.64C131.156 9.64 128.132 11.704 128.132 15.928ZM131.972 15.928C131.972 13.912 133.148 13 134.972 13C136.772 13 137.948 13.912 137.948 15.928C137.948 17.968 136.772 18.88 134.972 18.88C133.148 18.88 131.972 17.968 131.972 15.928ZM143.471 22H149.999C153.071 22 155.135 21.184 155.135 18.856C155.135 16.576 153.167 16.24 151.583 16.216V15.256C152.543 15.184 154.247 14.896 154.247 12.736C154.247 10.456 152.183 9.88 149.111 9.88H143.471V22ZM147.071 14.488V12.52H149.111C150.263 12.52 150.647 12.664 150.647 13.504C150.647 14.416 150.263 14.488 149.111 14.488H147.071ZM147.071 19.36V17.128H149.999C151.127 17.128 151.535 17.32 151.535 18.232C151.535 19.072 151.127 19.36 149.999 19.36H147.071ZM162.867 12.496H161.139V9.88H157.299V22H162.867C165.699 22 168.723 21.184 168.723 17.248C168.723 13.312 165.699 12.496 162.867 12.496ZM170.571 22H174.411V9.88H170.571V22ZM161.139 18.64V15.856H162.627C164.235 15.856 164.883 16.024 164.883 17.248C164.883 18.472 164.235 18.64 162.627 18.64H161.139ZM176.812 15.784C176.812 19.216 178.948 22.24 183.604 22.24C187.804 22.24 189.796 19.48 190.036 17.728H186.196C185.956 18.64 184.948 19.12 183.604 19.12C181.42 19.12 180.412 18.136 180.412 16.744H189.604V15.544C189.604 11.872 186.964 9.64 183.196 9.64C179.428 9.64 176.812 11.944 176.812 15.784ZM180.412 14.584C180.412 13.672 181.06 12.76 183.196 12.76C185.332 12.76 186.004 13.672 186.004 14.584H180.412ZM209.023 9.88L206.383 16.552V18.472H205.423V16.552L202.759 9.88H198.439L203.983 21.28V23.584L199.831 23.512V26.872L205.759 27.04C207.079 27.088 207.823 26.368 207.823 25.024V21.28L213.367 9.88H209.023ZM213.608 15.928C213.608 19.984 216.368 22.24 220.232 22.24C223.544 22.24 226.568 20.44 226.736 16.984H222.896C222.752 18.064 221.768 18.88 220.232 18.88C218.408 18.88 217.448 17.8 217.448 15.928C217.448 14.08 218.408 13 220.232 13C221.768 13 222.752 13.816 222.896 14.896H226.736C226.568 11.44 223.544 9.64 220.232 9.64C216.368 9.64 213.608 11.896 213.608 15.928ZM240.18 9.88H227.22V13.24H231.78V22H235.62V13.24H240.18V9.88ZM241.862 9.88V26.56H245.702V21.256L244.982 19.096H245.942C246.566 20.704 247.718 22.24 250.718 22.24C254.222 22.24 255.974 19.384 255.974 15.952C255.974 12.52 254.222 9.64 250.718 9.64C247.718 9.64 246.566 11.176 245.942 12.784H244.982L245.702 10.624V9.88H241.862ZM245.702 15.952C245.702 13.888 246.854 13 248.918 13C250.982 13 252.134 13.888 252.134 15.952C252.134 18.016 250.982 18.88 248.918 18.88C246.854 18.88 245.702 18.016 245.702 15.952ZM257.905 15.928C257.905 20.176 260.929 22.24 264.745 22.24C268.537 22.24 271.561 20.176 271.561 15.928C271.561 11.704 268.537 9.64 264.745 9.64C260.929 9.64 257.905 11.704 257.905 15.928ZM261.745 15.928C261.745 13.912 262.921 13 264.745 13C266.545 13 267.721 13.912 267.721 15.928C267.721 17.968 266.545 18.88 264.745 18.88C262.921 18.88 261.745 17.968 261.745 15.928ZM284.861 3.904H281.981C281.981 5.584 281.405 6.04 280.469 6.04C279.533 6.04 278.957 5.584 278.957 3.904H276.077C276.077 6.352 277.229 8.68 280.469 8.68C283.709 8.68 284.861 6.352 284.861 3.904ZM287.453 22V9.88H279.941L277.325 21.04H276.365L277.085 18.88V9.88H273.245V22H280.757L283.373 10.84H284.333L283.613 12.88V22H287.453ZM289.382 15.928C289.382 19.984 292.142 22.24 296.006 22.24C299.318 22.24 302.342 20.44 302.51 16.984H298.67C298.526 18.064 297.542 18.88 296.006 18.88C294.182 18.88 293.222 17.8 293.222 15.928C293.222 14.08 294.182 13 296.006 13C297.542 13 298.526 13.816 298.67 14.896H302.51C302.342 11.44 299.318 9.64 296.006 9.64C292.142 9.64 289.382 11.896 289.382 15.928ZM315.953 9.88H302.993V13.24H307.553V22H311.393V13.24H315.953V9.88ZM317.635 22H324.163C327.235 22 329.299 21.184 329.299 18.856C329.299 16.576 327.331 16.24 325.747 16.216V15.256C326.707 15.184 328.411 14.896 328.411 12.736C328.411 10.456 326.347 9.88 323.275 9.88H317.635V22ZM321.235 14.488V12.52H323.275C324.427 12.52 324.811 12.664 324.811 13.504C324.811 14.416 324.427 14.488 323.275 14.488H321.235ZM321.235 19.36V17.128H324.163C325.291 17.128 325.699 17.32 325.699 18.232C325.699 19.072 325.291 19.36 324.163 19.36H321.235ZM330.983 18.688C330.983 19.936 331.631 22.24 335.399 22.24C338.783 22.24 339.959 20.536 340.415 18.52H341.375L340.775 19.96V20.2C340.775 21.352 341.423 22 342.575 22H345.239V18.64H343.487V15.232C343.487 11.248 340.559 9.64 337.223 9.64C333.839 9.64 331.223 11.44 331.223 14.512H334.823C334.823 13.408 335.687 12.76 337.223 12.76C338.879 12.76 339.647 13.36 339.647 14.344L335.831 14.872C332.231 15.376 330.983 16.6 330.983 18.688ZM334.823 17.968C334.823 17.272 335.399 17.104 336.551 16.936L339.647 16.504C339.647 17.992 338.255 18.88 336.143 18.88C335.495 18.88 334.823 18.664 334.823 17.968ZM365.971 5.08V12.088H357.475V5.08H353.635V22H357.475V15.448H365.971V22H369.811V5.08H365.971ZM383.867 22.72C386.747 21.16 389.459 18.328 389.459 13.528C389.459 8.368 385.955 4.84 380.603 4.84C375.227 4.84 371.723 8.608 371.723 13.528C371.723 18.712 375.227 22 379.211 22C381.491 22 382.595 21.496 383.459 20.776L383.987 21.64C381.395 23.104 377.915 23.32 375.491 23.56L375.803 26.68C381.803 25.816 385.859 25.648 392.483 26.56V23.2C388.667 22.696 386.291 22.528 383.867 22.72ZM380.603 18.88C377.411 18.88 375.563 16.792 375.563 13.528C375.563 10.288 377.411 8.2 380.603 8.2C383.795 8.2 385.619 10.288 385.619 13.528C385.619 16.792 383.795 18.88 380.603 18.88ZM397.774 5.08H391.534V22H397.774C402.286 22 406.99 20.824 406.99 13.528C406.99 6.256 402.286 5.08 397.774 5.08ZM397.774 18.64H395.374V8.44H397.774C400.774 8.44 403.15 8.68 403.15 13.528C403.15 18.4 400.774 18.64 397.774 18.64Z" fill="white"></path> <path d="M5.62591 41.0833L4.16609 44.2949V45.1932H3.71692V44.2949L2.24587 41.0833H0.336881L3.04316 46.5295V47.529L1.10048 47.4616V49.0337L3.87413 49.1123C4.49174 49.1348 4.83985 48.7979 4.83985 48.169V46.5295L7.54613 41.0833H5.62591ZM7.09731 46.8215C7.09731 48.4161 8.14164 49.1123 9.9271 49.1123C11.6115 49.1123 12.5548 48.461 12.5548 47.484C12.5548 46.5969 11.8586 46.3162 11.2522 46.3162V45.867C11.8586 45.867 12.4425 45.6087 12.4425 44.7665C12.4425 43.857 11.5666 43.2169 9.88219 43.2169C8.09672 43.2169 7.2096 43.9019 7.2096 45.1596H8.894C8.894 44.5981 9.10736 44.4521 9.88219 44.4521C10.4886 44.4521 10.7581 44.5644 10.7581 44.9574C10.7581 45.3055 10.5223 45.474 10.0282 45.474H9.4667V46.7092H10.0282C10.5223 46.7092 10.8704 46.7878 10.8704 47.2707C10.8704 47.7086 10.5223 47.8771 9.9271 47.8771C9.14105 47.8771 8.78171 47.7199 8.78171 46.8215H7.09731ZM17.809 43.3292V45.3729H15.1364V43.3292H13.3397V49H15.1364V46.945H17.809V49H19.6057V43.3292H17.809ZM20.7256 47.4503C20.7256 48.0343 21.0288 49.1123 22.7918 49.1123C24.3752 49.1123 24.9254 48.315 25.1388 47.3717H25.5879L25.3072 48.0455V48.1578C25.3072 48.6968 25.6104 49 26.1494 49H27.3959V47.4279H26.5761V45.8333C26.5761 43.9692 25.2061 43.2169 23.6453 43.2169C22.0619 43.2169 20.8379 44.0591 20.8379 45.4964H22.5223C22.5223 44.9799 22.9266 44.6767 23.6453 44.6767C24.4201 44.6767 24.7794 44.9574 24.7794 45.4178L22.994 45.6649C21.3095 45.9007 20.7256 46.4734 20.7256 47.4503ZM22.5223 47.1135C22.5223 46.7878 22.7918 46.7092 23.3308 46.6306L24.7794 46.4285C24.7794 47.1247 24.1281 47.5402 23.1399 47.5402C22.8367 47.5402 22.5223 47.4391 22.5223 47.1135ZM33.0047 43.3292H26.9408V44.9013H29.0744V49H30.8711V44.9013H33.0047V43.3292ZM36.6161 44.5532H35.8076V43.3292H34.0109V49H36.6161C37.9412 49 39.3561 48.6182 39.3561 46.7766C39.3561 44.935 37.9412 44.5532 36.6161 44.5532ZM35.8076 47.4279V46.1253H36.5038C37.2562 46.1253 37.5594 46.2039 37.5594 46.7766C37.5594 47.3493 37.2562 47.4279 36.5038 47.4279H35.8076ZM49.4001 43.3292H43.6282V49H45.4249V44.9013H47.6034V49H49.4001V43.3292ZM50.5207 46.159C50.5207 48.1466 51.9356 49.1123 53.7211 49.1123C55.4953 49.1123 56.9102 48.1466 56.9102 46.159C56.9102 44.1826 55.4953 43.2169 53.7211 43.2169C51.9356 43.2169 50.5207 44.1826 50.5207 46.159ZM52.3174 46.159C52.3174 45.2157 52.8676 44.789 53.7211 44.789C54.5633 44.789 55.1135 45.2157 55.1135 46.159C55.1135 47.1135 54.5633 47.5402 53.7211 47.5402C52.8676 47.5402 52.3174 47.1135 52.3174 46.159ZM63.4103 47.4279V43.3292H58.7164C58.7164 45.5301 58.4918 46.6194 57.8854 47.4279H57.1443V50.5721H58.941V49H62.3547V50.5721H64.1514V47.4279H63.4103ZM59.6821 47.4279C60.1201 46.844 60.3671 46.1028 60.4569 44.9013H61.6136V47.4279H59.6821ZM65.0452 43.3292V51.1336H66.8419V48.6519L66.505 47.6412H66.9542C67.2461 48.3936 67.7851 49.1123 69.1888 49.1123C70.8283 49.1123 71.648 47.776 71.648 46.1702C71.648 44.5644 70.8283 43.2169 69.1888 43.2169C67.7851 43.2169 67.2461 43.9356 66.9542 44.6879H66.505L66.8419 43.6773V43.3292H65.0452ZM66.8419 46.1702C66.8419 45.2045 67.3809 44.789 68.3466 44.789C69.3123 44.789 69.8513 45.2045 69.8513 46.1702C69.8513 47.1359 69.3123 47.5402 68.3466 47.5402C67.3809 47.5402 66.8419 47.1359 66.8419 46.1702ZM72.5517 46.159C72.5517 48.1466 73.9666 49.1123 75.7521 49.1123C77.5263 49.1123 78.9412 48.1466 78.9412 46.159C78.9412 44.1826 77.5263 43.2169 75.7521 43.2169C73.9666 43.2169 72.5517 44.1826 72.5517 46.159ZM74.3484 46.159C74.3484 45.2157 74.8987 44.789 75.7521 44.789C76.5943 44.789 77.1446 45.2157 77.1446 46.159C77.1446 47.1135 76.5943 47.5402 75.7521 47.5402C74.8987 47.5402 74.3484 47.1135 74.3484 46.159ZM79.9565 45.328C79.9565 47.7311 81.1693 49.1123 83.3478 49.1123C85.706 49.1123 86.7278 47.7985 86.7278 46.0916C86.7278 44.4521 85.56 43.2169 83.8194 43.2169C82.3372 43.2169 81.3602 44.1152 81.1132 45.6649H80.664L81.1132 44.6542C81.3377 43.5088 82.0115 42.9474 83.5387 42.6217C85.0547 42.2961 86.5594 41.8806 86.7615 40.2972H84.7402C84.6392 40.724 84.2686 40.9373 82.8649 41.3865C81.0458 41.9704 79.9565 42.9698 79.9565 45.328ZM81.7532 46.159C81.7532 45.2494 82.3372 44.789 83.3478 44.789C84.3584 44.789 84.9311 45.2494 84.9311 46.159C84.9311 47.0686 84.3584 47.5402 83.3478 47.5402C82.3372 47.5402 81.7532 47.0686 81.7532 46.159ZM92.357 43.3292V45.3729H89.6844V43.3292H87.8877V49H89.6844V46.945H92.357V49H94.1537V43.3292H92.357ZM95.164 46.0916C95.164 47.6974 96.1634 49.1123 98.3419 49.1123C100.307 49.1123 101.239 47.8209 101.351 47.0012H99.5547C99.4424 47.4279 98.9707 47.6525 98.3419 47.6525C97.32 47.6525 96.8484 47.1921 96.8484 46.5408H101.149V45.9793C101.149 44.2612 99.914 43.2169 98.151 43.2169C96.388 43.2169 95.164 44.2949 95.164 46.0916ZM96.8484 45.5301C96.8484 45.1034 97.1516 44.6767 98.151 44.6767C99.1504 44.6767 99.4648 45.1034 99.4648 45.5301H96.8484ZM101.908 46.0916C101.908 47.6974 102.908 49.1123 105.086 49.1123C107.051 49.1123 107.983 47.8209 108.096 47.0012H106.299C106.187 47.4279 105.715 47.6525 105.086 47.6525C104.064 47.6525 103.593 47.1921 103.593 46.5408H107.893V45.9793C107.893 44.2612 106.658 43.2169 104.895 43.2169C103.132 43.2169 101.908 44.2949 101.908 46.0916ZM103.593 45.5301C103.593 45.1034 103.896 44.6767 104.895 44.6767C105.895 44.6767 106.209 45.1034 106.209 45.5301H103.593Z" fill="white"></path> <path d="M128.787 41.743L128.079 42.4772L131.083 45.591H118.027V46.629H131.083L128.079 49.7428L128.787 50.477L133 46.1107L128.787 41.7444V41.743Z" fill="white" stroke="white" stroke-width="0.249541" stroke-linecap="round" stroke-linejoin="round"></path> </svg> 