<?xml version="1.0" encoding="UTF-8"?> <svg xmlns="http://www.w3.org/2000/svg" width="253" height="66" viewBox="0 0 253 66" fill="none"> <path d="M0.480469 4.89453C0.480469 2.22266 2.64844 0.0546875 5.32031 0.0546875C7.99219 0.0546875 10.1602 2.22266 10.1602 4.89453V27.8281H65.1641V4.89453C65.1641 2.22266 67.332 0.0546875 70.0039 0.0546875C72.6758 0.0546875 74.8438 2.22266 74.8438 4.89453V60.3828C74.8438 63.0547 72.6758 65.2227 70.0039 65.2227C67.332 65.2227 65.1641 63.0547 65.1641 60.3828V37.5078H10.1602V60.3828C10.1602 63.0547 7.99219 65.2227 5.32031 65.2227C2.64844 65.2227 0.480469 63.0547 0.480469 60.3828V4.89453ZM109.109 0.0546875H143.766C157.551 0.0546875 168.832 11.3359 168.832 25.1211V40.1602C168.832 46.0078 166.801 51.4062 163.41 55.6836L156.84 48.2305C158.305 45.8789 159.152 43.1094 159.152 40.1602V25.1211C159.152 20.9023 157.418 17.0547 154.625 14.2617C151.832 11.4687 147.988 9.73438 143.766 9.73438H109.109C104.891 9.73438 101.043 11.4687 98.25 14.2617C95.457 17.0547 93.7227 20.9023 93.7227 25.1211V40.1602C93.7227 44.3789 95.457 48.2266 98.25 51.0195C101.043 53.8125 104.891 55.5469 109.109 55.5469H137.855L119.641 34.8828C118.398 33.4766 118.535 32.3281 119.941 32.3281H124.512C125.918 32.3281 128.082 33.4766 129.32 34.8828L153.816 62.668C155.059 64.0742 154.922 65.2266 153.516 65.2266C138.758 65.2266 123.922 65.2266 109.109 65.2266C95.3242 65.2266 84.043 53.9453 84.043 40.1602V25.1211C84.043 11.3359 95.3242 0.0546875 109.109 0.0546875ZM135.691 32.3281H140.262C141.668 32.3281 143.832 33.4766 145.07 34.8828L169.566 62.668C170.809 64.0742 170.672 65.2266 169.266 65.2266H164.699C163.293 65.2266 161.125 64.0742 159.887 62.668L135.391 34.8828C134.152 33.4766 134.285 32.3281 135.691 32.3281ZM183.977 0.0546875H221.188C238.48 0.0546875 252.633 14.2031 252.633 31.5V33.7812C252.633 51.0742 238.484 65.2266 221.188 65.2266H183.977C180.707 65.2266 178.031 62.5508 178.031 59.2812V6C178.031 2.73047 180.707 0.0546875 183.977 0.0546875ZM221.188 9.73438H187.711V55.5469H221.188C227.164 55.5469 232.602 53.0938 236.551 49.1445C240.5 45.1953 242.953 39.7578 242.953 33.7812V31.5C242.953 25.5234 240.5 20.0859 236.551 16.1367C232.602 12.1875 227.164 9.73438 221.188 9.73438Z" fill="white"></path> </svg> 