<?xml version="1.0" encoding="UTF-8"?> <svg xmlns="http://www.w3.org/2000/svg" width="253" height="66" viewBox="0 0 253 66" fill="none"> <path d="M0 4.83984C0 2.16797 2.16797 0 4.83984 0C7.51172 0 9.67969 2.16797 9.67969 4.83984V27.7734H64.6836V4.83984C64.6836 2.16797 66.8516 0 69.5234 0C72.1953 0 74.3633 2.16797 74.3633 4.83984V60.3281C74.3633 63 72.1953 65.168 69.5234 65.168C66.8516 65.168 64.6836 63 64.6836 60.3281V37.4531H9.67969V60.3281C9.67969 63 7.51172 65.168 4.83984 65.168C2.16797 65.168 0 63 0 60.3281V4.83984ZM108.629 0H143.285C157.07 0 168.352 11.2812 168.352 25.0664V40.1055C168.352 45.9531 166.32 51.3516 162.93 55.6289L156.359 48.1758C157.824 45.8242 158.672 43.0547 158.672 40.1055V25.0664C158.672 20.8477 156.938 17 154.145 14.207C151.352 11.4141 147.508 9.67969 143.285 9.67969H108.629C104.41 9.67969 100.562 11.4141 97.7695 14.207C94.9766 17 93.2422 20.8477 93.2422 25.0664V40.1055C93.2422 44.3242 94.9766 48.1719 97.7695 50.9648C100.562 53.7578 104.41 55.4922 108.629 55.4922H137.375L119.16 34.8281C117.918 33.4219 118.055 32.2734 119.461 32.2734H124.031C125.438 32.2734 127.602 33.4219 128.84 34.8281L153.336 62.6133C154.578 64.0195 154.441 65.1719 153.035 65.1719C138.277 65.1719 123.441 65.1719 108.629 65.1719C94.8438 65.1719 83.5625 53.8906 83.5625 40.1055V25.0664C83.5625 11.2812 94.8438 0 108.629 0ZM135.211 32.2734H139.781C141.188 32.2734 143.352 33.4219 144.59 34.8281L169.086 62.6133C170.328 64.0195 170.191 65.1719 168.785 65.1719H164.219C162.812 65.1719 160.645 64.0195 159.406 62.6133L134.91 34.8281C133.672 33.4219 133.805 32.2734 135.211 32.2734ZM183.496 0H220.707C238 0 252.152 14.1484 252.152 31.4453V33.7266C252.152 51.0195 238.004 65.1719 220.707 65.1719H183.496C180.227 65.1719 177.551 62.4961 177.551 59.2266V5.94531C177.551 2.67578 180.227 0 183.496 0ZM220.707 9.67969H187.23V55.4922H220.707C226.684 55.4922 232.121 53.0391 236.07 49.0898C240.02 45.1406 242.473 39.7031 242.473 33.7266V31.4453C242.473 25.4688 240.02 20.0312 236.07 16.082C232.121 12.1328 226.684 9.67969 220.707 9.67969Z" fill="white"></path> </svg> 