<?xml version="1.0" encoding="UTF-8"?> <svg xmlns="http://www.w3.org/2000/svg" width="432" height="197" viewBox="0 0 432 197" fill="none"> <g filter="url(#filter0_di)"> <rect x="74" y="74" width="284" height="49" fill="#FF188F"></rect> </g> <path d="M145.8 98.352C145.8 101.648 147.976 104.16 151.56 104.16C155.128 104.16 157.304 101.648 157.304 98.352C157.304 95.072 155.128 92.56 151.56 92.56C147.976 92.56 145.8 95.072 145.8 98.352ZM148.36 98.352C148.36 96.192 149.432 94.8 151.56 94.8C153.688 94.8 154.744 96.192 154.744 98.352C154.744 100.528 153.688 101.92 151.56 101.92C149.432 101.92 148.36 100.528 148.36 98.352ZM158.109 99.952C158.109 102.656 159.949 104.16 162.525 104.16C164.733 104.16 166.749 102.96 166.861 100.656H164.301C164.205 101.376 163.549 101.92 162.525 101.92C161.309 101.92 160.669 101.2 160.669 99.952C160.669 98.72 161.309 98 162.525 98C163.549 98 164.205 98.544 164.301 99.264H166.861C166.749 96.96 164.733 95.76 162.525 95.76C159.949 95.76 158.109 97.264 158.109 99.952ZM175.823 95.92H167.183V98.16H170.223V104H172.783V98.16H175.823V95.92ZM176.296 101.792C176.296 102.624 176.728 104.16 179.24 104.16C181.496 104.16 182.28 103.024 182.584 101.68H183.224L182.824 102.64V102.8C182.824 103.568 183.256 104 184.024 104H185.8V101.76H184.632V99.488C184.632 96.832 182.68 95.76 180.456 95.76C178.2 95.76 176.456 96.96 176.456 99.008H178.856C178.856 98.272 179.432 97.84 180.456 97.84C181.56 97.84 182.072 98.24 182.072 98.896L179.528 99.248C177.128 99.584 176.296 100.4 176.296 101.792ZM178.856 101.312C178.856 100.848 179.24 100.736 180.008 100.624L182.072 100.336C182.072 101.328 181.144 101.92 179.736 101.92C179.304 101.92 178.856 101.776 178.856 101.312ZM186.757 104H191.109C193.157 104 194.533 103.456 194.533 101.904C194.533 100.384 193.221 100.16 192.165 100.144V99.504C192.805 99.456 193.941 99.264 193.941 97.824C193.941 96.304 192.565 95.92 190.517 95.92H186.757V104ZM189.157 98.992V97.68H190.517C191.285 97.68 191.541 97.776 191.541 98.336C191.541 98.944 191.285 98.992 190.517 98.992H189.157ZM189.157 102.24V100.752H191.109C191.861 100.752 192.133 100.88 192.133 101.488C192.133 102.048 191.861 102.24 191.109 102.24H189.157ZM205.448 104V95.92H200.44L198.696 103.36H198.056L198.536 101.92V95.92H195.976V104H200.984L202.728 96.56H203.368L202.888 97.92V104H205.448ZM215.214 95.92H206.574V98.16H209.614V104H212.174V98.16H215.214V95.92ZM220.36 97.664H219.208V95.92H216.648V104H220.36C222.248 104 224.264 103.456 224.264 100.832C224.264 98.208 222.248 97.664 220.36 97.664ZM219.208 101.76V99.904H220.2C221.272 99.904 221.704 100.016 221.704 100.832C221.704 101.648 221.272 101.76 220.2 101.76H219.208ZM230.191 100.896C230.191 103.168 231.679 104.16 234.223 104.16C236.623 104.16 237.967 103.232 237.967 101.84C237.967 100.576 236.975 100.176 236.111 100.176V99.536C236.975 99.536 237.807 99.168 237.807 97.968C237.807 96.672 236.559 95.76 234.159 95.76C231.615 95.76 230.351 96.736 230.351 98.528H232.751C232.751 97.728 233.055 97.52 234.159 97.52C235.023 97.52 235.407 97.68 235.407 98.24C235.407 98.736 235.071 98.976 234.367 98.976H233.567V100.736H234.367C235.071 100.736 235.567 100.848 235.567 101.536C235.567 102.16 235.071 102.4 234.223 102.4C233.103 102.4 232.591 102.176 232.591 100.896H230.191ZM239.406 101.792C239.406 102.624 239.838 104.16 242.35 104.16C244.606 104.16 245.39 103.024 245.694 101.68H246.334L245.934 102.64V102.8C245.934 103.568 246.366 104 247.134 104H248.91V101.76H247.742V99.488C247.742 96.832 245.79 95.76 243.566 95.76C241.31 95.76 239.566 96.96 239.566 99.008H241.966C241.966 98.272 242.542 97.84 243.566 97.84C244.67 97.84 245.182 98.24 245.182 98.896L242.638 99.248C240.238 99.584 239.406 100.4 239.406 101.792ZM241.966 101.312C241.966 100.848 242.35 100.736 243.118 100.624L245.182 100.336C245.182 101.328 244.254 101.92 242.846 101.92C242.414 101.92 241.966 101.776 241.966 101.312ZM256.887 95.92H252.535C250.967 95.92 249.431 96.544 249.431 98.352C249.431 100.032 250.247 100.56 251.303 100.736L250.455 101.92H249.223V104H250.407C251.127 104 251.607 103.744 252.039 103.136L253.687 100.8H254.327V104H256.887V95.92ZM254.327 99.04H253.174C252.295 99.04 251.991 98.88 251.991 98.352C251.991 97.84 252.295 97.68 253.174 97.68H254.327V99.04ZM258.804 104H263.156C265.204 104 266.58 103.456 266.58 101.904C266.58 100.384 265.268 100.16 264.212 100.144V99.504C264.852 99.456 265.988 99.264 265.988 97.824C265.988 96.304 264.612 95.92 262.564 95.92H258.804V104ZM261.204 98.992V97.68H262.564C263.332 97.68 263.588 97.776 263.588 98.336C263.588 98.944 263.332 98.992 262.564 98.992H261.204ZM261.204 102.24V100.752H263.156C263.908 100.752 264.18 100.88 264.18 101.488C264.18 102.048 263.908 102.24 263.156 102.24H261.204ZM276.343 104L273.751 99.44L274.727 98.16H276.023V95.92H274.583C273.895 95.92 273.287 96.048 272.887 96.576L271.271 98.752H270.583V95.92H268.023V104H270.583V100.992H271.399C271.559 100.992 271.703 100.992 271.847 100.976L273.575 104H276.343ZM283.88 95.92L282.12 100.368V101.648H281.48V100.368L279.704 95.92H276.824L280.52 103.52V105.056L277.752 105.008V107.248L281.704 107.36C282.584 107.392 283.08 106.912 283.08 106.016V103.52L286.776 95.92H283.88Z" fill="#09102C"></path> <defs> <filter id="filter0_di" x="0" y="0" width="432" height="197" filterUnits="userSpaceOnUse" color-interpolation-filters="sRGB"> <feFlood flood-opacity="0" result="BackgroundImageFix"></feFlood> <feColorMatrix in="SourceAlpha" type="matrix" values="0 0 0 0 0 0 0 0 0 0 0 0 0 0 0 0 0 0 127 0"></feColorMatrix> <feOffset></feOffset> <feGaussianBlur stdDeviation="37"></feGaussianBlur> <feColorMatrix type="matrix" values="0 0 0 0 1 0 0 0 0 0.0941176 0 0 0 0 0.560784 0 0 0 0.67 0"></feColorMatrix> <feBlend mode="normal" in2="BackgroundImageFix" result="effect1_dropShadow"></feBlend> <feBlend mode="normal" in="SourceGraphic" in2="effect1_dropShadow" result="shape"></feBlend> <feColorMatrix in="SourceAlpha" type="matrix" values="0 0 0 0 0 0 0 0 0 0 0 0 0 0 0 0 0 0 127 0" result="hardAlpha"></feColorMatrix> <feOffset></feOffset> <feGaussianBlur stdDeviation="5.5"></feGaussianBlur> <feComposite in2="hardAlpha" operator="arithmetic" k2="-1" k3="1"></feComposite> <feColorMatrix type="matrix" values="0 0 0 0 1 0 0 0 0 1 0 0 0 0 1 0 0 0 0.26 0"></feColorMatrix> <feBlend mode="normal" in2="shape" result="effect2_innerShadow"></feBlend> </filter> </defs> </svg> 