<svg xmlns="http://www.w3.org/2000/svg" width="24" height="24" viewBox="0 0 24 24">
    <path fill="#424242" fill-rule="evenodd" d="M12 15a3 3 0 1 0 0-6 3 3 0 0 0 0 6zm0 1a4 4 0 1 1 0-8 4 4 0 0 1 0 8zM9.864 3.978a1.25 1.25 0 0 1-.707.76l-.27.111a1.25 1.25 0 0 1-1.037-.036l-1.875-.938-2.091 2.092.936 1.873c.162.324.176.703.037 1.038l-.112.27a1.25 1.25 0 0 1-.76.706L2 10.516v2.958l1.981.661c.344.115.621.373.76.708l.114.275a1.25 1.25 0 0 1-.037 1.037l-.934 1.869 2.091 2.092 1.865-.933a1.25 1.25 0 0 1 1.038-.037l.28.116c.334.139.592.416.706.76l.66 1.978h2.957l.66-1.978a1.25 1.25 0 0 1 .706-.76l.276-.114a1.25 1.25 0 0 1 1.038.036l1.865.933 2.091-2.092-.932-1.865a1.25 1.25 0 0 1-.037-1.038l.115-.276a1.25 1.25 0 0 1 .76-.707l1.977-.66v-2.958l-1.978-.66a1.25 1.25 0 0 1-.76-.707l-.114-.276a1.25 1.25 0 0 1 .037-1.038l.932-1.865-2.09-2.092-1.866.933a1.25 1.25 0 0 1-1.038.036l-.276-.114a1.25 1.25 0 0 1-.707-.76L13.481 2h-2.957l-.66 1.978zm-.948-.316l.659-1.978A1 1 0 0 1 10.524 1h2.957a1 1 0 0 1 .949.684l.66 1.978a.25.25 0 0 0 .14.152l.276.115a.25.25 0 0 0 .208-.008l1.865-.932a1 1 0 0 1 1.154.187l2.092 2.092a1 1 0 0 1 .187 1.154l-.933 1.866a.25.25 0 0 0-.007.207l.114.276a.25.25 0 0 0 .152.142l1.978.659a1 1 0 0 1 .684.949v2.958a1 1 0 0 1-.684.949l-1.978.66a.25.25 0 0 0-.152.14l-.114.277a.25.25 0 0 0 .007.207l.933 1.866a1 1 0 0 1-.187 1.154l-2.092 2.092a1 1 0 0 1-1.154.187l-1.865-.932a.25.25 0 0 0-.208-.008l-.275.115a.25.25 0 0 0-.142.152l-.66 1.978a1 1 0 0 1-.948.684h-2.957a1 1 0 0 1-.949-.684l-.66-1.978a.25.25 0 0 0-.14-.152l-.28-.116a.25.25 0 0 0-.208.007l-1.864.933a1 1 0 0 1-1.155-.187L3.177 18.73a1 1 0 0 1-.188-1.154l.935-1.869a.25.25 0 0 0 .007-.207l-.114-.276a.25.25 0 0 0-.152-.141l-1.981-.66a1 1 0 0 1-.684-.95v-2.958a1 1 0 0 1 .684-.949l1.985-.662a.25.25 0 0 0 .152-.141l.112-.27a.25.25 0 0 0-.007-.207l-.937-1.873a1 1 0 0 1 .188-1.154l2.091-2.092a1 1 0 0 1 1.155-.188l1.875.938a.25.25 0 0 0 .207.008l.27-.112a.25.25 0 0 0 .14-.152z"/>
</svg>
